<?xml version="1.0" standalone="no"?>
<!DOCTYPE svg PUBLIC "-//W3C//DTD SVG 20010904//EN"
 "http://www.w3.org/TR/2001/REC-SVG-20010904/DTD/svg10.dtd">
<svg version="1.0" xmlns="http://www.w3.org/2000/svg"
 width="1080.000000pt" height="1080.000000pt" viewBox="0 0 1080.000000 1080.000000"
 preserveAspectRatio="xMidYMid meet">
<metadata>
Created by potrace 1.14, written by Peter Selinger 2001-2017
</metadata>
<g transform="translate(0.000000,1080.000000) scale(0.100000,-0.100000)"
fill="#000000" stroke="none">
<path d="M5170 9576 c5 -5 10 -15 10 -20 0 -7 -4 -6 -8 1 -4 7 -24 14 -44 16
-29 3 -35 1 -31 -11 5 -12 2 -12 -14 -4 -15 8 -25 7 -41 -4 -20 -14 -21 -13
-16 3 5 17 5 17 -9 1 -16 -20 -32 -25 -21 -6 4 7 3 8 -4 4 -7 -4 -12 -2 -12 4
0 7 -5 6 -14 -2 -8 -7 -12 -16 -9 -20 2 -5 -1 -8 -6 -8 -6 0 -11 5 -11 11 0 5
-5 7 -10 4 -6 -4 -7 -12 -3 -18 4 -7 0 -6 -10 2 -14 11 -17 11 -17 0 0 -9 -3
-10 -8 -4 -9 13 -35 18 -27 5 3 -5 3 -10 -2 -11 -4 0 -16 -2 -26 -4 -9 -2 -15
1 -11 6 3 5 1 9 -5 9 -5 0 -12 -6 -14 -12 -4 -10 -8 -9 -16 2 -9 12 -11 11
-12 -10 -1 -16 -3 -19 -6 -8 -3 14 -9 15 -29 7 -14 -5 -29 -7 -34 -4 -4 3 -13
-2 -20 -10 -9 -11 -17 -12 -32 -4 -16 8 -19 8 -13 -1 5 -9 1 -10 -15 -5 -19 6
-22 4 -17 -9 5 -13 3 -15 -10 -7 -12 6 -21 4 -31 -7 -7 -10 -11 -11 -7 -4 3 6
1 12 -4 12 -6 0 -11 -5 -11 -12 0 -6 -3 -8 -7 -5 -3 4 -13 1 -21 -6 -13 -10
-14 -9 -8 1 10 17 -44 5 -59 -13 -5 -6 -15 -10 -22 -8 -6 2 -14 -1 -18 -6 -3
-6 -12 -11 -18 -11 -7 0 -6 4 3 10 9 6 10 10 3 10 -6 0 -15 -5 -19 -11 -3 -6
-15 -8 -26 -6 -16 5 -17 3 -7 -9 7 -8 8 -14 3 -13 -28 5 -84 -2 -79 -11 4 -6
-1 -7 -11 -3 -12 5 -15 3 -9 -6 6 -11 3 -11 -16 0 -21 11 -22 10 -12 -2 10
-13 5 -15 -37 -14 -38 0 -46 -3 -38 -13 8 -9 7 -11 -7 -6 -14 6 -16 4 -10 -7
8 -12 6 -12 -8 0 -14 11 -18 11 -23 -4 -5 -13 -9 -14 -15 -4 -6 10 -11 10 -22
1 -8 -7 -23 -9 -33 -5 -18 7 -18 6 -1 -11 21 -21 23 -33 2 -16 -10 8 -15 9
-15 2 0 -6 -7 -9 -15 -6 -8 4 -15 1 -15 -6 0 -10 -3 -10 -14 -1 -10 8 -16 9
-21 1 -3 -5 0 -10 7 -10 10 0 9 -3 -2 -10 -9 -6 -17 -5 -21 1 -4 7 -9 4 -12
-6 -6 -13 -11 -14 -28 -4 -12 6 -19 7 -15 1 3 -6 3 -12 -1 -15 -5 -2 -1 -2 7
0 11 3 12 1 4 -7 -9 -9 -17 -9 -34 0 -20 11 -21 10 -10 -10 10 -18 10 -21 -2
-14 -22 14 -38 13 -38 -3 0 -13 -3 -13 -15 -3 -13 11 -14 10 -9 -5 5 -13 4
-16 -5 -11 -7 5 -21 0 -33 -11 -12 -10 -18 -12 -13 -4 5 9 3 12 -6 9 -8 -3
-13 -11 -11 -18 2 -8 -3 -10 -13 -7 -9 4 -15 1 -15 -8 0 -21 -18 -19 -23 3 -4
16 -5 16 -6 0 0 -10 -6 -18 -12 -18 -5 0 -7 -5 -4 -10 8 -13 -18 -8 -27 5 -4
6 -8 2 -8 -7 0 -10 -5 -18 -11 -18 -5 0 -7 -5 -3 -11 5 -8 2 -9 -12 -1 -15 9
-22 6 -37 -16 -11 -16 -17 -20 -15 -10 2 9 -1 16 -7 15 -5 -1 -10 -10 -10 -19
-1 -10 -5 -21 -10 -25 -4 -5 -5 0 -2 10 8 21 -9 23 -17 1 -3 -8 -9 -13 -13
-11 -8 5 -34 -18 -32 -29 0 -3 -3 -9 -7 -12 -4 -4 -4 -2 0 5 3 6 2 14 -3 17
-5 3 -11 -1 -15 -9 -3 -8 -13 -15 -21 -15 -9 0 -13 -5 -9 -11 4 -8 -1 -9 -16
-4 -19 6 -22 4 -17 -9 4 -10 3 -15 -3 -11 -6 3 -10 1 -10 -6 0 -8 -5 -7 -17 2
-11 10 -14 10 -9 2 4 -8 2 -13 -4 -13 -6 0 -8 -4 -5 -10 3 -5 0 -7 -8 -4 -8 3
-18 1 -22 -5 -3 -6 -1 -11 6 -11 7 0 10 -3 7 -6 -4 -3 -16 -1 -27 6 -17 8 -21
8 -19 -2 2 -7 -2 -12 -9 -11 -7 2 -10 -3 -7 -11 3 -7 -2 -16 -11 -20 -9 -3
-13 -2 -10 4 3 5 -1 7 -9 4 -9 -3 -14 -11 -13 -17 1 -7 -3 -11 -10 -10 -7 2
-17 -6 -23 -17 -6 -11 -17 -20 -25 -20 -8 0 -15 -6 -15 -12 0 -9 -4 -8 -10 2
-8 13 -10 12 -10 -3 0 -11 -4 -15 -12 -11 -8 5 -9 2 -5 -9 3 -9 3 -16 -1 -16
-22 4 -32 -2 -26 -13 6 -9 3 -9 -9 0 -14 12 -16 11 -12 -7 3 -18 1 -20 -15
-11 -16 8 -18 8 -14 -5 4 -8 1 -16 -5 -16 -26 -3 -30 -4 -38 -13 -5 -5 -3 -6
5 -2 6 4 12 2 12 -3 0 -6 -7 -11 -16 -11 -9 0 -12 -5 -8 -12 5 -8 0 -7 -11 2
-11 9 -16 10 -11 3 4 -8 2 -13 -4 -13 -6 0 -8 -5 -4 -12 5 -8 2 -9 -10 -5 -11
5 -15 3 -10 -5 5 -8 2 -9 -11 -4 -16 6 -16 4 -4 -11 12 -15 12 -16 -3 -10 -12
4 -18 2 -18 -7 0 -7 -8 -20 -17 -27 -15 -11 -16 -11 -5 1 19 22 14 32 -7 13
-10 -10 -18 -22 -17 -28 1 -5 -5 -9 -11 -7 -7 1 -13 -3 -13 -9 0 -5 -6 -7 -12
-3 -9 5 -8 2 1 -9 12 -15 12 -17 -3 -11 -11 4 -16 1 -16 -10 0 -9 -8 -16 -20
-16 -11 0 -20 -7 -20 -15 0 -8 -5 -15 -11 -15 -5 0 -8 -4 -5 -9 4 -5 -4 -7
-16 -4 -17 3 -19 2 -9 -5 11 -8 9 -11 -8 -17 -15 -4 -20 -12 -16 -22 5 -13 3
-14 -10 -3 -13 11 -16 11 -13 -1 2 -8 -4 -13 -16 -12 -12 1 -15 -2 -8 -9 11
-11 -7 -38 -26 -38 -6 0 -8 -10 -5 -22 4 -19 3 -20 -6 -8 -10 14 -16 7 -12
-14 1 -5 -6 -3 -15 5 -16 13 -16 12 -6 -8 9 -16 9 -24 0 -29 -7 -4 -8 -3 -4 4
4 7 1 12 -9 12 -9 0 -13 -4 -10 -10 3 -5 1 -10 -5 -10 -6 0 -14 -8 -17 -17 -9
-24 -43 -68 -51 -66 -4 1 -6 -5 -4 -12 2 -10 -3 -13 -14 -8 -12 4 -15 3 -10
-5 4 -7 2 -12 -4 -12 -6 0 -9 -4 -6 -9 3 -5 -2 -15 -11 -22 -15 -12 -16 -12
-10 4 13 35 -3 15 -23 -28 -13 -28 -27 -45 -38 -45 -15 0 -15 -2 -2 -10 14 -9
13 -11 -9 -14 -15 -2 -25 -16 -12 -16 7 0 9 -5 6 -10 -4 -6 -11 -8 -16 -5 -5
4 -9 1 -9 -6 0 -6 -8 -18 -17 -26 -10 -8 -12 -11 -4 -7 9 5 12 3 7 -4 -4 -7
-15 -12 -24 -12 -15 0 -15 -2 -2 -10 12 -8 11 -11 -8 -16 -15 -4 -19 -9 -12
-14 7 -5 1 -16 -20 -33 -17 -15 -29 -31 -26 -36 3 -5 -1 -11 -9 -15 -8 -3 -15
-10 -15 -16 0 -6 5 -8 12 -4 7 5 8 3 4 -5 -5 -7 -14 -10 -22 -7 -9 4 -14 -2
-14 -15 0 -13 -4 -18 -12 -13 -10 6 -10 4 0 -8 10 -13 10 -18 1 -24 -8 -4 -9
-3 -5 4 4 7 2 12 -5 12 -6 0 -9 -8 -6 -19 3 -13 0 -18 -8 -15 -7 3 -16 0 -21
-7 -5 -8 -3 -10 6 -4 8 5 11 3 8 -6 -3 -8 -10 -13 -16 -12 -7 2 -9 -4 -5 -14
5 -12 3 -14 -7 -8 -8 5 -11 4 -6 -3 3 -6 -4 -21 -16 -33 -13 -12 -16 -18 -8
-14 12 7 13 6 3 -7 -7 -8 -9 -19 -5 -23 4 -5 1 -5 -5 -1 -8 4 -13 1 -13 -8 0
-9 -5 -16 -11 -16 -5 0 -7 -4 -4 -10 3 -5 1 -10 -5 -10 -7 0 -9 -7 -6 -16 5
-12 2 -15 -10 -10 -14 5 -15 4 -5 -8 9 -11 8 -15 -4 -20 -8 -3 -15 -14 -15
-25 0 -11 -5 -23 -12 -27 -7 -4 -8 -3 -4 4 5 8 1 10 -9 5 -11 -4 -13 -8 -5
-13 6 -3 8 -14 4 -23 -3 -9 -10 -15 -14 -12 -4 2 -6 -10 -4 -27 2 -17 1 -28
-3 -25 -10 10 -37 -34 -38 -61 0 -12 -4 -26 -10 -30 -5 -4 -10 -14 -10 -22 0
-8 -5 -14 -12 -13 -8 2 -10 -4 -6 -14 4 -11 3 -14 -5 -9 -7 4 -12 2 -12 -3 0
-6 5 -11 11 -11 6 0 3 -8 -8 -17 -10 -10 -14 -15 -8 -11 7 5 12 2 12 -7 0 -8
-4 -15 -9 -15 -5 0 -6 -6 -2 -12 5 -8 0 -7 -11 2 -17 14 -18 14 -6 -9 8 -15 9
-21 2 -17 -10 7 -14 -4 -14 -46 0 -11 -5 -14 -16 -10 -14 5 -14 4 -2 -12 11
-13 11 -16 1 -14 -7 2 -15 -3 -18 -11 -3 -8 0 -11 7 -7 16 10 14 0 -5 -18 -9
-9 -11 -16 -4 -16 6 0 8 -5 5 -10 -4 -6 -11 -7 -17 -4 -6 4 -6 -2 1 -15 10
-17 9 -20 -4 -15 -8 4 -15 2 -15 -4 0 -6 6 -13 13 -15 6 -3 3 -6 -8 -6 -17 -1
-17 -3 -5 -11 11 -7 11 -10 2 -10 -10 0 -10 -5 -1 -22 11 -21 11 -22 -5 -9
-14 12 -16 12 -10 -4 6 -14 4 -16 -7 -10 -11 7 -11 5 1 -10 13 -17 13 -18 0
-13 -11 4 -16 0 -16 -12 0 -10 5 -16 10 -13 5 4 6 1 0 -8 -5 -8 -9 -18 -10
-24 0 -5 -2 -16 -2 -23 -1 -7 -6 -10 -12 -7 -5 3 -10 1 -10 -4 0 -6 6 -11 13
-11 7 -1 5 -6 -5 -14 -14 -10 -15 -15 -5 -26 10 -10 9 -11 -2 -5 -11 6 -13 3
-9 -13 4 -13 1 -22 -5 -22 -7 0 -5 -5 3 -10 12 -7 12 -10 1 -10 -7 0 -11 -6
-8 -14 3 -8 -1 -17 -8 -20 -9 -3 -12 -12 -8 -22 5 -13 3 -15 -8 -9 -11 6 -12
5 -2 -6 17 -17 17 -32 1 -23 -9 5 -9 2 1 -9 9 -12 10 -17 2 -17 -7 0 -9 -5 -6
-10 4 -6 1 -18 -7 -27 -9 -12 -9 -15 0 -9 6 4 12 2 12 -3 0 -6 -5 -11 -11 -11
-8 0 -8 -4 0 -14 8 -10 9 -16 1 -21 -6 -3 -7 -11 -4 -17 4 -6 2 -8 -4 -4 -6 3
-13 2 -17 -4 -3 -5 -1 -10 5 -10 7 0 8 -6 0 -19 -13 -26 -13 -34 3 -25 8 6 8
3 -1 -9 -8 -9 -11 -25 -7 -37 5 -15 2 -20 -12 -21 -16 0 -16 -1 2 -9 12 -5 14
-9 6 -9 -8 -1 -11 -4 -8 -8 4 -3 -1 -12 -11 -20 -9 -7 -12 -13 -7 -12 23 3 36
-2 30 -11 -4 -6 -10 -8 -15 -5 -4 3 -11 -2 -14 -11 -3 -8 -2 -12 4 -9 6 3 7
-1 4 -9 -4 -10 -1 -16 7 -16 8 0 5 -6 -7 -16 -10 -8 -13 -13 -7 -9 9 4 11 1 7
-9 -3 -9 -11 -13 -18 -9 -6 3 -6 1 2 -8 16 -17 16 -43 -1 -33 -7 5 -6 0 3 -11
9 -11 10 -16 3 -11 -7 4 -13 2 -13 -3 0 -6 6 -11 13 -11 9 0 8 -3 -2 -9 -11
-7 -11 -9 0 -14 12 -4 11 -7 -1 -16 -13 -10 -13 -12 0 -20 12 -8 11 -13 -5
-32 -11 -12 -14 -19 -7 -15 16 9 16 -6 0 -23 -10 -11 -10 -13 0 -7 15 9 15 1
2 -24 -9 -17 -8 -18 7 -13 15 5 16 4 7 -8 -14 -17 -17 -132 -3 -124 16 11 9
-7 -8 -21 -13 -10 -14 -13 -4 -14 10 0 11 -3 2 -14 -9 -11 -9 -16 0 -22 8 -5
9 -3 4 6 -5 9 -4 11 3 6 9 -5 7 -14 -4 -32 -16 -23 -16 -24 2 -17 15 5 17 4 8
-8 -14 -17 -17 -132 -3 -124 5 4 9 1 9 -4 0 -6 -8 -11 -17 -11 -13 0 -14 -3
-5 -12 14 -14 16 -32 2 -23 -6 3 -7 -1 -4 -9 3 -9 9 -14 13 -11 4 2 8 -2 8
-10 0 -8 -4 -15 -8 -15 -4 0 -4 -13 1 -30 6 -20 5 -30 -2 -30 -7 0 -7 -4 1
-13 7 -10 7 -17 0 -24 -8 -8 -7 -13 2 -18 8 -6 10 -4 4 6 -5 8 -4 11 0 6 5 -4
9 -16 10 -27 1 -16 -1 -18 -13 -7 -13 10 -14 9 -4 -10 15 -27 15 -36 2 -28
-16 10 -11 -1 7 -16 9 -8 14 -9 10 -3 -3 6 0 11 8 11 13 0 13 -3 0 -17 -12
-13 -12 -19 -2 -30 9 -10 9 -11 0 -6 -7 4 -13 3 -13 -3 0 -5 5 -11 12 -13 6
-2 12 -16 12 -30 1 -15 -2 -24 -6 -22 -4 3 -4 -5 1 -18 4 -13 6 -36 4 -53 -3
-23 -1 -26 7 -15 13 20 13 4 0 -21 -6 -11 -7 -25 -3 -32 8 -12 9 -17 12 -38 0
-5 5 -8 9 -5 5 3 9 -1 9 -9 0 -8 -4 -12 -8 -10 -10 7 -5 -22 6 -32 4 -4 5 -2
0 6 -5 9 -4 12 3 7 7 -4 8 -17 2 -36 -5 -19 -5 -28 1 -25 5 4 9 3 10 -2 0 -4
2 -16 4 -25 2 -10 -1 -20 -6 -23 -5 -3 -3 -14 3 -25 7 -10 15 -17 18 -15 4 2
7 -2 7 -10 0 -8 -5 -11 -11 -8 -6 4 -5 0 2 -9 10 -13 10 -17 0 -21 -10 -4 -10
-6 0 -6 6 -1 12 -8 12 -17 0 -9 -5 -12 -12 -8 -7 4 -8 3 -4 -4 4 -6 14 -8 24
-5 15 6 15 5 3 -10 -7 -10 -9 -17 -3 -17 6 0 9 -11 7 -25 -1 -16 3 -25 12 -25
11 0 11 -4 3 -20 -8 -15 -8 -20 1 -20 8 0 8 -4 -1 -15 -11 -13 -10 -14 5 -9
15 6 16 5 5 -17 -12 -23 -12 -23 5 -9 17 14 17 12 13 -22 -2 -21 -2 -35 1 -33
10 11 29 -31 20 -47 -7 -14 -5 -16 11 -13 23 4 26 -5 8 -25 -10 -11 -9 -11 7
0 11 8 23 20 27 25 5 7 8 6 8 0 0 -6 -4 -15 -10 -21 -6 -6 -3 -10 9 -10 11 0
17 4 15 8 -3 4 7 8 21 8 17 0 24 4 19 12 -4 7 -3 8 4 4 6 -4 10 -12 8 -19 -1
-7 -1 -9 1 -4 3 4 9 5 13 2 5 -3 12 0 16 6 5 8 3 9 -6 4 -9 -6 -11 -4 -6 4 8
12 20 7 22 -10 1 -5 2 -12 3 -15 0 -3 14 4 30 16 19 13 32 17 36 10 4 -6 11
-7 17 -4 7 4 8 2 4 -5 -4 -6 -12 -8 -18 -5 -7 4 -8 2 -4 -4 5 -9 13 -9 27 -2
11 6 17 16 13 21 -4 7 2 7 15 0 12 -7 26 -9 31 -6 5 3 12 0 16 -6 5 -8 3 -9
-6 -4 -9 5 -11 4 -6 -3 5 -9 13 -9 26 -2 13 7 21 7 25 0 8 -13 25 -13 25 1 0
5 -4 8 -9 4 -5 -3 -12 -1 -16 4 -3 6 -12 8 -20 4 -8 -3 -15 -1 -15 5 0 11 25
10 36 -1 4 -4 14 -1 22 6 10 7 13 8 9 1 -4 -7 0 -17 8 -24 13 -11 14 -10 9 4
-3 9 -2 16 4 16 5 0 12 -7 16 -15 3 -8 12 -12 21 -9 8 3 13 10 10 15 -6 9 29
4 48 -8 21 -13 39 -12 33 2 -3 10 2 12 21 9 24 -5 25 -3 12 13 -13 16 -12 17
3 5 9 -8 16 -19 14 -25 -1 -7 -1 -9 1 -4 3 4 9 5 13 2 5 -3 12 0 16 6 5 8 3 9
-6 4 -9 -6 -11 -4 -6 4 8 12 20 7 22 -10 1 -5 2 -12 3 -15 0 -3 14 4 30 16 19
13 32 17 36 10 4 -6 11 -7 17 -4 7 4 8 2 4 -5 -4 -6 -12 -8 -18 -5 -7 4 -8 2
-4 -4 5 -9 13 -9 27 -2 11 6 16 16 13 22 -5 7 -2 8 6 3 21 -13 60 -14 60 -3 0
6 10 0 22 -13 14 -16 19 -18 15 -7 -7 19 8 34 18 18 4 -6 11 -7 17 -4 7 4 8 2
4 -5 -4 -6 -12 -8 -18 -5 -7 4 -8 2 -4 -4 5 -9 13 -9 27 -2 11 6 17 16 13 21
-4 7 2 7 15 0 12 -7 26 -9 31 -6 5 3 12 0 16 -6 5 -8 3 -9 -6 -4 -9 5 -11 4
-6 -3 5 -9 13 -9 26 -2 13 7 21 7 25 0 8 -13 25 -13 25 1 0 5 -4 8 -9 4 -5 -3
-12 -1 -16 4 -3 6 -12 8 -20 4 -8 -3 -15 -1 -15 5 0 11 25 10 36 -1 4 -4 14
-1 22 6 10 7 13 8 9 1 -4 -7 0 -17 8 -24 13 -11 14 -10 9 4 -3 9 -2 16 4 16 5
0 12 -7 16 -15 3 -8 12 -12 21 -9 8 3 13 10 10 15 -6 9 29 4 48 -8 21 -13 39
-12 33 2 -3 10 2 12 21 9 24 -5 25 -3 12 13 -13 16 -12 17 3 5 9 -8 16 -19 14
-25 -1 -7 -1 -9 1 -4 3 4 9 5 13 2 5 -3 12 0 16 6 5 8 3 9 -6 4 -9 -6 -11 -4
-6 4 8 12 20 7 22 -10 1 -5 2 -12 3 -15 0 -3 14 4 30 16 19 13 32 17 36 10 4
-6 11 -7 17 -4 7 4 8 2 4 -5 -4 -6 -12 -8 -18 -5 -7 4 -8 2 -4 -4 5 -9 13 -9
27 -2 11 6 17 16 13 21 -4 7 2 7 15 0 12 -7 27 -9 33 -5 6 4 8 3 4 -4 -3 -6
-2 -13 3 -16 5 -4 13 -1 17 5 4 8 9 7 15 -2 7 -11 9 -11 9 -1 0 7 5 10 12 6 6
-4 8 -3 4 4 -3 6 1 12 11 14 15 3 15 4 -1 20 -10 10 -13 18 -8 18 5 0 9 7 9
15 0 11 -4 12 -11 5 -5 -5 -15 -10 -20 -10 -6 0 -4 5 4 11 11 7 12 12 3 15 -7
3 -10 11 -7 19 3 7 -5 20 -18 29 -15 11 -17 16 -8 16 11 1 11 3 -3 11 -9 6
-15 15 -11 20 3 6 -1 18 -8 27 -8 9 -19 24 -23 32 -8 13 -7 13 11 0 18 -14 18
-14 1 6 -9 11 -14 24 -10 27 3 4 1 7 -6 7 -7 0 -11 7 -8 15 4 8 1 17 -5 21 -7
5 -8 2 -3 -6 5 -9 4 -11 -4 -6 -9 6 -9 11 1 24 10 12 10 14 1 8 -8 -4 -13 -1
-13 9 0 10 -5 13 -12 9 -9 -5 -9 -2 1 9 12 15 11 17 -5 17 -16 0 -17 2 -4 10
10 6 11 10 3 10 -7 0 -13 5 -13 11 0 5 6 7 13 3 9 -6 9 -5 0 8 -7 8 -9 19 -5
23 4 5 1 5 -5 1 -9 -5 -13 0 -13 13 0 12 -4 21 -10 21 -5 0 -10 5 -10 11 0 5
6 7 13 3 8 -5 8 -3 -2 9 -7 9 -11 26 -8 37 3 11 0 23 -5 27 -7 4 -8 1 -3 -8 7
-12 6 -12 -6 0 -11 11 -12 14 -1 18 10 4 8 9 -7 20 -16 11 -19 19 -12 31 7 12
3 25 -12 47 -14 19 -15 25 -5 17 13 -10 18 -10 24 -1 4 8 3 9 -4 5 -7 -4 -12
-2 -12 4 0 6 -7 18 -15 26 -8 8 -12 21 -8 29 3 9 0 21 -5 28 -7 8 -7 18 -2 27
14 22 12 30 -7 30 -17 1 -17 1 0 11 9 5 17 15 17 22 0 7 -4 6 -10 -3 -8 -13
-10 -12 -10 3 0 10 -4 16 -8 13 -4 -2 -9 5 -9 17 -2 17 0 18 7 7 5 -8 12 -12
15 -8 3 3 -1 13 -10 22 -12 12 -13 16 -3 16 8 0 6 4 -5 11 -13 8 -15 14 -7 30
7 13 7 19 0 19 -5 0 -10 5 -10 11 0 5 5 7 12 3 7 -5 8 -3 3 7 -5 7 -8 26 -7
42 1 16 -1 26 -6 23 -9 -5 -8 41 1 51 12 11 8 25 -5 17 -9 -5 -9 -2 1 9 10 13
10 17 1 17 -10 0 -10 3 0 15 9 10 9 15 1 15 -6 0 -11 5 -11 11 0 5 4 8 9 4 5
-3 13 0 17 6 5 8 3 9 -5 5 -12 -8 -24 16 -21 38 1 5 -4 13 -12 17 -10 7 -9 9
5 9 9 0 17 7 17 15 0 8 -6 13 -12 11 -7 -1 -10 -1 -5 1 11 7 8 38 -4 50 -9 9
-6 11 12 7 13 -2 18 -1 11 2 -10 5 -10 9 -1 20 6 8 8 14 4 14 -4 0 -2 7 5 15
10 12 9 16 -2 20 -15 6 -18 39 -5 51 10 10 9 26 -1 20 -5 -3 -9 1 -9 9 0 8 4
12 9 9 4 -3 8 2 8 11 0 10 -5 13 -12 9 -7 -4 -5 2 5 13 14 16 15 22 5 26 -10
4 -8 9 5 17 14 9 16 15 6 26 -6 8 -9 17 -6 21 4 3 2 11 -3 18 -6 8 -5 18 6 31
8 10 13 13 9 7 -9 -18 0 -16 16 4 8 9 9 14 4 11 -6 -4 -17 -3 -25 3 -10 5 -11
9 -3 9 7 0 17 10 24 21 8 15 8 19 0 15 -6 -4 -11 -3 -11 3 0 5 5 13 11 17 8 4
7 9 -2 15 -9 6 -10 9 -2 9 6 0 10 8 8 18 -1 9 3 23 9 31 7 10 7 13 0 8 -6 -3
-11 0 -11 8 0 8 3 13 6 12 3 -1 8 3 9 8 2 6 8 16 14 23 8 9 7 12 -3 9 -8 -2
-11 -2 -6 0 4 3 7 12 7 21 0 10 3 13 8 7 6 -9 30 -11 57 -5 26 6 41 4 54 -5
11 -7 13 -7 7 3 -4 6 -2 12 3 12 6 0 11 -6 11 -12 0 -9 3 -9 8 -3 8 12 41 13
59 2 6 -4 14 -3 17 1 6 11 36 9 55 -3 10 -5 12 -4 7 3 -4 7 -2 12 3 12 6 0 11
-6 11 -12 0 -8 3 -9 8 -3 10 14 65 14 74 1 5 -8 8 -7 8 2 0 6 5 12 11 12 5 0
7 -5 3 -11 -5 -8 -1 -8 14 0 14 8 23 8 27 1 4 -6 12 -7 18 -3 15 11 38 10 56
-1 10 -6 12 -5 7 2 -4 7 -2 12 3 12 6 0 11 -6 11 -12 0 -8 3 -9 8 -3 10 14 65
14 74 1 5 -8 8 -7 8 2 0 6 5 12 11 12 5 0 7 -5 3 -11 -5 -8 -1 -8 14 0 14 8
23 8 27 1 4 -6 12 -7 18 -3 15 11 38 10 56 -1 10 -6 12 -5 7 2 -4 7 -2 12 3
12 6 0 11 -6 11 -12 0 -9 3 -9 8 -3 8 12 66 14 77 3 4 -4 17 -3 28 3 14 8 18
8 13 0 -4 -6 -1 -11 6 -11 8 0 20 -9 27 -19 8 -11 20 -17 28 -14 12 5 18 -8
14 -30 -1 -5 3 -6 8 -2 6 3 7 13 4 23 -5 15 -4 16 8 1 18 -21 47 -31 54 -19 4
6 12 10 18 9 9 0 9 -2 0 -6 -7 -2 -13 -10 -13 -16 0 -5 3 -7 7 -4 3 4 18 0 32
-10 26 -16 26 -16 8 4 -14 16 -15 20 -2 20 8 0 15 -5 15 -10 0 -5 8 -3 17 4
15 12 16 12 9 -6 -6 -16 -5 -18 5 -7 16 15 33 16 23 0 -4 -7 -3 -8 5 -4 6 4 9
11 6 16 -3 5 0 12 6 16 8 4 9 3 5 -4 -4 -6 4 -16 16 -23 20 -11 21 -10 11 3
-10 12 -10 15 2 15 8 0 15 -5 15 -10 0 -5 8 -3 17 4 9 8 14 9 10 3 -4 -7 4
-14 20 -17 25 -5 26 -4 10 8 -17 12 -16 13 7 11 13 0 22 -4 19 -8 -6 -11 31
-10 62 2 17 7 24 7 20 0 -3 -6 3 -10 14 -10 11 0 31 4 46 10 17 7 24 7 20 0
-8 -13 26 -13 60 0 17 7 24 7 20 0 -3 -6 3 -10 14 -10 28 0 52 11 45 21 -3 5
-3 9 0 9 3 0 13 -12 21 -27 9 -16 14 -20 11 -10 -6 20 4 22 23 5 8 -7 11 -8 8
-3 -3 6 3 16 14 23 10 7 18 9 17 5 -2 -5 1 -9 6 -10 5 -1 13 -7 17 -15 7 -10
9 -8 10 7 0 11 3 14 6 7 4 -10 8 -10 20 0 14 11 15 10 9 -12 -6 -21 -5 -22 4
-7 6 9 16 17 21 17 6 0 7 -5 3 -12 -4 -7 -3 -8 5 -4 6 4 9 11 6 16 -3 5 0 12
6 16 8 4 9 3 5 -4 -4 -6 4 -16 16 -23 20 -11 21 -10 11 3 -10 12 -10 15 2 15
8 0 15 -5 15 -10 0 -5 8 -3 17 4 9 8 14 9 10 3 -4 -7 4 -14 20 -17 25 -5 26
-4 10 8 -17 12 -16 13 7 11 13 0 22 -4 19 -8 -6 -11 31 -10 62 2 24 9 26 8 20
-11 -7 -20 -7 -21 12 -2 11 10 18 22 15 26 -2 5 4 4 15 -2 18 -9 20 -7 17 15
-2 21 0 23 12 13 12 -10 13 -9 8 6 -5 13 -4 16 4 11 7 -4 12 -3 12 3 0 5 -6
12 -12 14 -9 4 -9 6 2 6 10 1 7 6 -8 17 -18 13 -21 19 -11 30 9 11 6 15 -20
20 -17 4 -31 10 -31 15 0 5 -5 9 -11 9 -5 0 -7 -6 -3 -12 4 -7 4 -10 -1 -6 -4
4 -14 3 -21 -3 -10 -8 -12 -6 -9 10 3 19 2 19 -18 8 -27 -17 -53 -16 -49 2 1
7 -2 10 -8 6 -6 -3 -8 -10 -5 -15 3 -5 1 -12 -5 -15 -6 -4 -9 -3 -8 2 2 4 -1
10 -7 12 -5 2 -20 7 -32 12 -18 7 -21 5 -17 -9 3 -9 -2 -6 -11 8 -9 14 -14 17
-11 8 3 -10 0 -20 -6 -24 -7 -5 -8 -2 -3 6 5 9 1 11 -16 6 -13 -3 -18 -3 -11
0 6 3 12 12 12 20 0 9 -5 12 -12 8 -7 -4 -8 -3 -4 4 9 15 41 15 66 2 16 -8 18
-8 14 5 -3 8 -10 13 -14 10 -5 -3 -11 -1 -14 4 -7 11 13 9 32 -2 7 -5 12 -3
12 5 0 9 2 10 8 2 9 -15 64 -15 55 0 -3 6 4 2 17 -9 18 -15 22 -16 18 -4 -4 9
-1 16 8 16 7 0 10 -5 7 -10 -3 -5 0 -7 8 -5 8 3 23 1 34 -5 18 -9 19 -9 6 7
-12 15 -12 17 0 14 8 -2 17 -7 21 -13 5 -6 8 -4 8 5 0 13 1 13 10 0 9 -13 10
-13 10 0 0 13 1 13 10 0 7 -11 10 -11 10 -2 0 8 5 10 13 5 17 -11 30 -11 45 0
8 6 12 5 12 -4 0 -11 2 -11 10 1 7 11 10 11 10 2 0 -8 5 -10 12 -6 17 11 58
11 58 1 0 -5 7 -4 15 3 12 10 15 10 15 -1 0 -8 6 -6 16 7 8 10 13 14 10 8 -3
-6 1 -11 9 -11 7 0 12 8 10 18 -2 10 0 21 6 24 5 4 4 15 -3 28 -10 20 -10 21
6 8 14 -12 16 -12 10 3 -3 9 -9 16 -14 16 -13 0 -50 37 -50 51 0 8 -3 10 -8 4
-11 -15 -39 -17 -48 -4 -4 8 -3 9 5 5 6 -4 10 -4 9 1 -6 22 14 50 35 49 12 -1
28 3 36 8 11 8 13 8 8 0 -4 -7 0 -14 8 -18 8 -3 15 -1 15 4 0 6 5 10 11 10 5
0 8 -4 4 -9 -3 -6 4 -8 17 -5 13 3 33 6 46 7 20 1 27 9 23 30 -1 5 4 5 10 1 6
-3 15 0 20 7 13 20 11 31 -3 23 -9 -5 -9 -2 1 9 11 14 11 20 0 34 -10 11 -10
14 -1 9 6 -4 12 -2 12 3 0 6 -7 11 -16 11 -8 0 -12 4 -9 10 4 6 -2 7 -17 1
-16 -6 -30 -3 -48 8 -13 9 -21 11 -17 5 7 -13 -17 -27 -27 -16 -11 10 -36 11
-36 0 0 -5 -7 -2 -16 6 -18 18 -28 21 -19 5 5 -7 -4 -9 -29 -5 -25 4 -36 2
-36 -7 0 -9 -2 -9 -8 1 -8 12 -45 12 -58 0 -8 -8 -37 2 -46 16 -5 7 -8 3 -8
-9 0 -11 -4 -15 -8 -10 -8 12 -41 13 -58 2 -7 -4 -18 0 -25 9 -12 14 -14 14
-26 -2 -7 -10 -13 -14 -13 -8 0 5 -22 9 -50 10 -27 0 -50 -4 -50 -9 0 -5 -7
-4 -15 3 -8 6 -18 10 -22 7 -4 -3 -8 10 -9 28 0 19 3 32 8 29 4 -3 8 -1 8 3 0
5 17 8 38 7 20 -1 37 -3 37 -4 0 -1 10 -3 22 -4 12 -1 20 1 18 5 -3 4 2 10 11
13 8 3 12 2 9 -3 -3 -6 19 -10 50 -10 31 0 53 4 50 10 -3 5 1 6 9 3 9 -3 13
-11 9 -17 -3 -6 -1 -7 6 -3 20 13 82 15 74 3 -4 -6 -1 -7 7 -2 8 5 42 8 77 7
43 -1 62 2 57 9 -3 6 6 3 22 -7 15 -11 25 -13 20 -6 -6 9 -1 11 18 8 15 -3 30
2 38 12 11 13 11 15 -2 8 -9 -4 -8 -1 3 7 19 16 24 32 5 21 -7 -5 -8 -3 -4 5
5 7 14 10 22 7 11 -4 11 -1 -1 18 -13 19 -13 25 -3 29 10 4 10 6 -1 6 -7 1
-22 11 -32 23 -11 11 -19 16 -19 11 0 -6 -7 -14 -16 -17 -14 -5 -15 -4 -4 9 7
8 9 15 4 16 -5 0 -19 2 -32 3 -14 2 -21 -2 -18 -9 5 -13 -29 -13 -41 0 -5 4
-3 5 4 1 14 -8 28 10 14 18 -5 4 -17 -4 -25 -16 -15 -21 -22 -14 -17 15 0 4
-4 7 -10 7 -6 0 -9 -7 -6 -15 4 -8 1 -17 -5 -21 -7 -4 -8 -3 -4 4 4 7 1 12 -9
12 -10 0 -13 -5 -9 -12 4 -6 -3 -4 -16 5 -22 15 -24 15 -37 -1 -13 -15 -13
-15 -8 8 5 19 4 22 -4 10 -10 -13 -12 -13 -22 0 -9 12 -10 10 -6 -8 4 -17 2
-21 -6 -14 -7 5 -19 10 -27 10 -8 1 -27 3 -42 5 -20 3 -28 0 -28 -10 0 -8 -5
-11 -10 -8 -6 4 -7 11 -4 17 5 7 2 8 -5 4 -7 -5 -10 -15 -7 -25 5 -13 4 -13
-8 2 -10 14 -15 15 -19 5 -4 -10 -8 -10 -16 2 -9 13 -11 13 -11 1 0 -11 -3
-12 -11 -4 -6 6 -18 9 -27 6 -11 -5 -13 -3 -7 7 6 9 4 11 -4 6 -7 -5 -10 -15
-6 -25 5 -12 3 -13 -6 -4 -6 6 -18 9 -25 6 -8 -3 -14 0 -14 6 0 6 -5 11 -11
11 -5 0 -8 -4 -4 -9 3 -5 0 -13 -6 -17 -7 -4 -9 -3 -5 4 3 6 2 13 -4 17 -5 3
-10 1 -10 -4 0 -6 -5 -11 -11 -11 -5 0 -7 6 -3 13 4 6 -2 4 -13 -6 -19 -17
-21 -17 -36 5 -11 15 -14 17 -11 6 7 -20 -12 -25 -19 -5 -4 9 -6 9 -6 -1 -1
-8 -6 -10 -13 -5 -21 13 -47 13 -54 1 -5 -7 -3 -8 6 -3 9 6 11 4 5 -5 -6 -10
-11 -9 -22 5 -7 11 -13 13 -13 7 0 -7 -5 -12 -11 -12 -5 0 -8 4 -5 9 4 5 -1 8
-10 7 -8 -1 -19 -8 -23 -14 -5 -8 -11 0 -18 21 -8 26 -7 34 2 34 24 0 75 25
69 34 -3 5 4 9 15 9 28 0 51 10 51 23 0 7 -4 7 -12 -1 -7 -7 -16 -12 -22 -12
-5 0 -1 6 9 14 11 8 26 11 34 8 10 -4 12 -1 6 9 -7 11 -5 11 10 -1 13 -10 16
-11 11 -2 -5 9 -3 12 7 10 19 -4 64 45 58 63 -4 12 -2 12 13 0 15 -13 16 -12
7 13 -7 16 -7 26 -1 26 5 0 7 7 4 15 -4 8 -11 12 -18 9 -6 -3 -2 2 9 12 20 16
20 16 -3 11 -13 -3 -21 -3 -18 0 3 4 0 13 -7 22 -10 14 -10 14 3 6 9 -5 8 -2
-3 7 -10 9 -25 14 -32 11 -11 -3 -15 2 -16 18 0 23 -1 23 -9 4 -5 -11 -9 -15
-9 -9 -1 7 -8 15 -17 18 -14 5 -15 4 -5 -8 10 -12 7 -13 -23 -6 -20 4 -34 4
-31 0 3 -5 1 -11 -5 -15 -5 -3 -10 0 -10 7 0 7 -5 5 -11 -6 -9 -15 -13 -16
-20 -5 -7 12 -9 12 -9 0 0 -11 -3 -11 -14 -1 -12 9 -17 8 -28 -9 -9 -15 -15
-17 -25 -9 -10 8 -12 7 -8 -4 5 -11 -1 -15 -19 -15 -15 0 -23 4 -19 10 4 6 1
7 -6 3 -7 -5 -10 -15 -7 -23 3 -8 2 -11 -3 -8 -5 3 -12 1 -15 -3 -3 -5 -17 -7
-31 -4 -15 2 -25 0 -25 -7 0 -6 -5 -11 -11 -11 -5 0 -7 6 -3 13 3 6 -4 1 -17
-13 -13 -14 -20 -20 -15 -13 6 10 4 12 -8 7 -9 -3 -16 -10 -16 -16 0 -5 -10
-6 -21 -3 -15 5 -19 4 -15 -4 4 -6 2 -11 -4 -11 -6 0 -9 -4 -6 -8 3 -5 -1 -9
-9 -9 -8 0 -12 5 -9 11 3 6 -3 1 -13 -10 -10 -12 -28 -21 -40 -20 -13 2 -19
-2 -16 -10 3 -9 -2 -12 -16 -9 -12 2 -21 -1 -21 -6 0 -6 -10 -9 -22 -7 -18 2
-22 -1 -20 -16 2 -10 -1 -15 -7 -12 -5 3 -15 0 -23 -7 -7 -7 -21 -16 -32 -20
-12 -5 -16 -13 -12 -24 6 -14 4 -14 -14 2 -20 19 -21 19 -14 -1 4 -10 3 -16
-1 -12 -5 5 -15 -1 -23 -13 -11 -17 -17 -18 -30 -7 -10 7 -14 8 -10 4 5 -5 -1
-16 -12 -23 -12 -8 -17 -20 -13 -26 4 -7 -1 -6 -10 2 -15 12 -17 12 -11 -2 6
-16 -11 -18 -34 -3 -8 5 -19 3 -25 -3 -9 -9 -8 -11 6 -6 9 4 17 3 17 -3 0 -6
-8 -9 -17 -8 -10 2 -21 -2 -25 -8 -5 -8 -8 -7 -8 2 0 6 -7 12 -16 12 -8 0 -13
3 -10 8 6 10 -62 8 -71 -3 -5 -4 -2 -5 4 -1 9 5 11 2 7 -9 -9 -22 -30 -13 -25
11 3 18 2 18 -16 1 -11 -9 -23 -14 -26 -11 -4 4 -14 1 -24 -7 -11 -9 -14 -10
-9 -1 4 6 3 12 -3 12 -5 0 -17 3 -27 7 -12 4 -15 3 -10 -5 5 -8 1 -10 -10 -5
-13 5 -15 3 -9 -7 5 -9 4 -11 -4 -6 -6 4 -9 11 -6 16 9 14 -28 21 -42 7 -15
-14 -87 -11 -77 4 8 13 -10 11 -24 -3 -9 -9 -12 -8 -12 8 0 14 -3 15 -9 6 -6
-10 -12 -9 -27 5 -11 10 -15 16 -9 13 6 -3 3 3 -7 12 -17 16 -17 17 -1 34 17
17 17 18 1 11 -22 -8 -23 6 -3 23 9 7 14 19 11 26 -3 8 -2 13 2 11 4 -1 7 1 7
4 0 3 8 14 18 24 16 15 20 16 28 4 6 -9 8 -3 4 19 -5 28 -2 35 15 39 11 3 17
9 14 14 -3 5 0 9 5 9 6 0 11 6 11 13 0 17 46 58 55 49 4 -4 6 -2 5 3 -6 27 1
44 15 39 11 -5 13 -2 9 10 -7 19 12 22 20 4 2 -7 4 -2 3 12 -1 15 3 24 11 22
6 -1 12 5 12 14 0 9 5 12 13 8 7 -5 7 -2 -2 10 -8 9 -10 16 -5 15 21 -4 35 2
29 11 -3 6 1 10 9 10 8 0 18 5 22 12 5 7 2 9 -7 4 -8 -4 -5 -1 5 8 10 8 23 13
27 10 4 -2 6 5 4 17 -3 13 0 19 8 17 14 -5 49 27 40 36 -4 3 1 6 11 6 9 0 14
5 11 10 -3 6 -2 10 4 10 5 0 11 -3 14 -7 2 -5 2 -2 0 5 -1 8 4 20 12 28 9 9
15 11 15 4 0 -6 5 -8 10 -5 6 4 8 10 5 14 -7 12 30 42 53 44 16 1 19 4 10 15
-6 7 -7 12 -2 11 20 -3 35 1 30 10 -3 5 7 14 23 21 16 6 32 19 35 27 4 9 13
13 22 9 8 -3 12 -2 9 4 -3 6 5 14 19 20 14 5 26 12 26 15 0 4 -5 3 -12 -1 -6
-4 -8 -3 -4 4 3 6 16 9 28 7 11 -3 18 -2 14 2 -3 4 1 14 10 24 13 15 21 16 36
8 13 -7 18 -7 14 -1 -7 12 22 44 34 37 4 -3 11 2 14 11 4 10 12 14 22 10 11
-4 15 -2 11 7 -3 8 1 14 9 14 7 0 10 -5 7 -10 -3 -6 -1 -7 5 -3 7 4 12 15 12
24 0 15 2 15 10 2 6 -10 10 -11 10 -2 0 6 9 12 21 12 11 0 17 5 14 10 -5 9 23
15 48 11 4 0 6 5 5 11 -2 7 3 12 10 10 6 -1 12 3 12 9 0 6 9 9 19 6 14 -3 18
-1 14 10 -6 16 17 14 29 -2 4 -6 8 -2 8 7 0 10 6 17 13 15 6 -1 11 4 9 11 -1
8 2 11 8 7 6 -4 18 -1 27 7 12 9 15 9 9 1 -4 -7 -2 -13 3 -13 10 0 15 14 12
33 -1 5 3 6 9 2 6 -4 17 -2 25 5 10 8 15 8 20 0 5 -8 14 -6 28 7 11 10 18 13
14 7 -3 -6 1 -11 9 -11 9 0 13 6 9 15 -4 12 -3 13 10 2 13 -11 14 -10 9 5 -6
15 -4 16 16 5 18 -10 21 -9 15 1 -6 9 -3 11 8 6 10 -3 17 -2 17 4 0 6 5 7 10
4 6 -3 10 -1 10 6 0 7 10 9 25 7 14 -3 25 -1 25 5 0 6 3 7 7 4 3 -4 13 -1 21
6 9 6 13 7 9 1 -3 -6 1 -11 9 -11 9 0 13 6 9 16 -3 8 -3 12 1 8 4 -4 16 1 26
10 13 12 18 13 16 4 -2 -7 3 -16 11 -19 10 -3 11 0 5 9 -6 12 -5 12 8 1 13
-10 18 -10 24 -1 5 8 3 9 -6 4 -8 -5 -11 -4 -7 2 4 6 20 9 37 7 19 -2 29 0 25
6 -9 15 2 12 19 -6 9 -9 16 -11 16 -4 0 6 4 9 9 5 5 -3 13 0 17 6 4 7 3 9 -4
5 -6 -3 -13 -2 -16 3 -4 5 2 8 11 7 10 -2 22 2 26 8 5 6 6 0 3 -14 -3 -14 -3
-19 0 -12 3 6 11 9 17 5 6 -4 8 -1 5 8 -4 11 2 15 22 14 16 0 26 -4 23 -10 -3
-5 0 -5 7 2 7 6 19 9 28 6 11 -5 13 -3 7 7 -6 9 -4 11 5 5 19 -12 81 -12 76 0
-4 11 25 11 61 0 13 -4 20 -12 16 -19 -3 -6 2 -3 13 6 16 14 23 15 32 6 9 -9
12 -9 12 1 0 10 3 11 13 2 8 -6 17 -8 21 -4 4 4 11 2 15 -6 6 -10 10 -9 14 4
5 10 3 14 -5 9 -7 -4 -8 -3 -4 4 5 9 12 8 27 -1 16 -10 21 -9 29 3 8 12 10 12
11 -5 0 -11 3 -14 6 -7 4 10 8 10 21 0 14 -11 15 -10 9 6 -6 16 -5 17 8 6 18
-15 75 -20 75 -7 0 5 5 5 12 1 7 -5 27 -8 45 -7 18 0 33 -3 33 -6 0 -10 44 -8
51 2 4 6 13 6 24 0 12 -7 14 -13 6 -17 -6 -4 -11 -2 -11 5 0 7 -3 10 -6 6 -14
-14 8 -26 27 -14 16 10 21 9 28 -2 7 -11 9 -11 14 0 4 10 6 10 6 2 1 -7 6 -13
12 -13 5 0 7 5 4 10 -3 6 -2 10 3 10 6 0 13 -7 16 -16 5 -12 9 -14 20 -5 10 8
16 8 26 -4 7 -8 16 -13 20 -10 5 3 16 -2 24 -11 9 -8 16 -11 16 -5 0 14 -35
32 -45 23 -5 -4 -5 -1 -1 6 9 15 40 1 55 -26 6 -9 11 -11 11 -4 0 6 7 12 15
12 8 0 15 -6 15 -12 0 -9 4 -8 10 2 6 9 10 10 10 3 0 -6 8 -10 19 -8 14 3 18
-3 17 -23 0 -15 5 -26 11 -25 6 1 14 -4 17 -12 3 -9 0 -12 -10 -8 -10 4 -12 0
-8 -11 3 -9 10 -13 15 -10 5 3 9 0 9 -5 0 -6 -7 -11 -16 -11 -8 0 -12 -5 -9
-10 4 -6 11 -7 17 -4 7 5 8 2 4 -5 -5 -7 -15 -10 -23 -6 -13 4 -14 3 -3 -10 7
-8 9 -15 4 -15 -5 0 -1 -5 9 -11 18 -10 18 -11 0 -32 -17 -19 -17 -20 0 -14 9
4 17 2 17 -3 0 -9 -14 -14 -32 -11 -5 0 -8 -4 -8 -10 0 -7 9 -9 21 -6 18 5 18
3 7 -11 -7 -9 -17 -20 -23 -24 -6 -5 -6 -8 2 -8 6 0 15 5 18 10 3 6 12 10 18
10 8 0 8 -3 2 -8 -5 -4 -19 -18 -30 -32 -13 -16 -14 -20 -4 -12 13 10 18 10
21 0 6 -17 -1 -39 -11 -34 -4 3 -8 -2 -8 -10 0 -8 6 -13 14 -10 7 3 13 1 13
-4 0 -9 -14 -14 -32 -11 -5 0 -8 -4 -8 -10 0 -7 9 -9 21 -6 18 5 18 3 7 -11
-7 -9 -17 -20 -23 -24 -6 -5 -6 -8 2 -8 6 0 15 5 18 10 3 6 12 10 18 10 8 0 8
-3 2 -8 -5 -4 -19 -18 -30 -32 -13 -16 -14 -20 -4 -12 13 10 18 10 21 0 6 -17
-1 -39 -11 -34 -4 3 -8 -1 -8 -9 0 -8 4 -12 8 -10 4 3 9 -2 12 -10 4 -9 1 -12
-8 -9 -16 7 -14 -18 3 -39 15 -18 0 -33 -20 -21 -9 5 -9 2 1 -9 7 -9 10 -17 5
-17 -5 0 -3 -4 5 -9 15 -10 25 -41 13 -40 -21 3 -23 -3 -6 -17 10 -8 13 -13 7
-9 -11 5 -18 -8 -10 -18 1 -2 -5 -12 -13 -22 -8 -11 -10 -16 -3 -12 7 5 17 -1
23 -14 9 -17 9 -20 0 -14 -9 5 -10 1 -5 -14 3 -11 2 -21 -3 -21 -5 0 -9 -6 -9
-14 0 -8 8 -11 20 -8 16 4 19 2 14 -12 -4 -10 -2 -27 4 -38 8 -15 8 -19 0 -14
-10 7 -16 -7 -12 -28 1 -5 -7 -6 -18 -3 -18 4 -19 2 -10 -15 8 -15 8 -19 0
-13 -8 4 -10 -2 -7 -20 4 -24 3 -25 -11 -13 -15 11 -15 11 -6 -7 9 -15 8 -22
-5 -33 -15 -12 -14 -12 8 -7 l25 6 -24 -14 c-18 -11 -20 -16 -10 -20 12 -4 12
-6 0 -6 -11 -1 -11 -4 0 -18 10 -11 10 -14 2 -9 -7 4 -13 3 -13 -3 0 -5 6 -11
13 -14 8 -3 6 -10 -7 -26 -20 -22 -20 -22 0 -15 17 7 18 6 4 -11 -9 -11 -10
-16 -2 -11 6 4 12 2 12 -3 0 -6 -5 -11 -11 -11 -8 0 -7 -6 2 -17 10 -11 10
-14 2 -9 -7 4 -13 3 -13 -3 0 -5 6 -11 13 -14 8 -3 6 -11 -8 -27 -11 -13 -14
-20 -6 -15 11 6 13 4 8 -9 -4 -10 -3 -15 3 -11 6 3 10 1 10 -4 0 -6 -5 -11
-11 -11 -8 0 -7 -6 2 -17 10 -11 10 -14 2 -9 -7 4 -13 3 -13 -3 0 -5 6 -11 13
-14 8 -3 6 -11 -8 -27 -11 -13 -14 -20 -6 -15 11 6 13 4 8 -9 -4 -10 -3 -15 3
-11 6 3 10 1 10 -4 0 -6 -5 -11 -11 -11 -8 0 -7 -6 2 -17 10 -11 10 -14 2 -9
-7 4 -13 2 -13 -3 0 -6 6 -11 13 -11 8 0 7 -4 -3 -10 -9 -6 -10 -10 -3 -10 13
0 12 -38 -2 -59 -5 -10 -4 -12 3 -7 7 4 12 2 12 -3 0 -6 -4 -11 -9 -11 -6 0
-9 -9 -8 -20 1 -11 4 -20 8 -20 10 0 5 -42 -6 -59 -5 -10 -4 -12 3 -7 7 4 12
2 12 -3 0 -6 -4 -11 -8 -11 -4 0 -8 -11 -8 -24 0 -14 4 -22 8 -20 4 3 8 1 8
-5 0 -5 -6 -12 -12 -15 -10 -5 -10 -7 0 -12 10 -5 9 -9 -5 -20 -17 -13 -17
-14 2 -7 18 6 19 5 5 -12 -9 -11 -10 -16 -2 -11 6 4 12 2 12 -3 0 -6 -5 -11
-11 -11 -8 0 -7 -6 2 -17 10 -11 10 -14 2 -9 -7 4 -13 3 -13 -3 0 -5 6 -12 13
-15 8 -3 6 -9 -7 -20 -12 -10 -15 -16 -7 -16 8 0 11 -6 7 -16 -3 -8 -2 -12 4
-9 6 3 10 1 10 -4 0 -6 -5 -11 -11 -11 -6 0 -7 -5 -2 -12 14 -23 13 -43 -4
-55 -16 -12 -16 -13 0 -13 20 0 22 -11 5 -29 -7 -7 -8 -12 -3 -11 25 5 35 -2
35 -24 0 -28 15 -42 25 -25 4 6 17 8 30 5 17 -4 27 1 40 20 9 14 22 23 30 21
15 -6 15 24 0 35 -6 5 -6 8 2 8 12 0 12 17 0 37 -4 6 -3 14 3 18 9 5 9 18 0
60 -1 6 -1 13 0 18 6 19 5 33 -5 39 -7 5 -7 8 1 8 6 0 10 15 9 34 0 19 2 33 6
30 4 -2 9 0 11 5 1 5 12 -3 23 -17 10 -15 13 -22 5 -15 -12 9 -15 7 -15 -12 0
-19 3 -21 14 -12 12 9 13 9 7 -1 -11 -19 -13 -132 -2 -132 6 0 1 -7 -10 -16
-15 -12 -15 -15 -2 -10 14 4 15 0 8 -23 -4 -16 -3 -35 2 -46 8 -13 7 -16 -1
-11 -12 8 -13 6 -15 -46 -1 -21 2 -34 8 -31 5 4 7 -1 3 -9 -3 -9 -3 -19 0 -22
4 -3 7 -17 8 -30 0 -17 -3 -22 -11 -16 -12 11 -13 -17 -1 -37 4 -6 1 -14 -5
-16 -8 -4 -7 -6 4 -6 11 -1 15 -7 11 -19 -2 -11 4 -25 14 -33 17 -13 17 -13 3
6 -14 20 -14 20 7 1 13 -10 21 -22 18 -25 -2 -4 6 -8 18 -8 17 -2 19 0 7 7
-11 7 -7 10 16 10 38 0 59 20 41 39 -9 10 -8 11 6 6 20 -8 23 5 5 24 -11 10
-10 11 2 6 11 -4 16 1 17 15 1 11 -2 18 -8 15 -5 -4 -9 -1 -9 4 0 6 4 11 9 11
5 0 8 8 6 18 -2 9 -4 17 -5 17 -1 0 -3 10 -4 23 -2 15 2 21 10 18 8 -3 11 0 7
9 -3 8 -9 13 -13 10 -10 -6 -7 21 3 31 11 11 8 26 -3 19 -5 -3 -10 -1 -10 4 0
6 4 11 9 11 10 0 9 25 -1 35 -9 9 3 46 13 39 5 -3 6 2 3 10 -3 9 -10 14 -14
11 -10 -6 -7 21 3 31 11 11 8 26 -3 19 -5 -3 -10 -1 -10 4 0 6 4 11 9 11 11 0
9 19 -3 39 -6 9 -5 12 1 8 15 -9 23 29 10 42 -6 6 -7 11 -1 12 5 0 17 2 27 4
10 2 22 -6 29 -18 10 -20 10 -21 -5 -8 -21 17 -22 8 -2 -13 16 -15 10 -50 -7
-40 -6 4 -6 -1 1 -13 6 -11 7 -24 3 -28 -4 -5 -1 -5 6 -1 13 8 17 -10 4 -18
-5 -3 -8 -15 -7 -28 1 -13 -2 -29 -8 -36 -8 -10 -7 -12 3 -10 8 2 14 -1 15 -7
0 -5 4 -15 8 -22 4 -6 0 -19 -9 -27 -11 -11 -12 -16 -3 -16 10 0 10 -3 2 -11
-12 -12 -6 -42 7 -34 11 7 6 -22 -5 -32 -4 -4 -5 -2 -1 4 5 9 2 11 -9 7 -14
-6 -14 -8 2 -20 10 -7 14 -14 9 -14 -5 0 -3 -6 3 -14 9 -11 8 -18 -4 -30 -9
-9 -12 -16 -6 -16 6 0 11 -4 11 -10 0 -5 -6 -8 -12 -6 -7 1 -10 1 -5 -1 4 -3
4 -10 1 -15 -4 -7 -2 -8 4 -4 7 4 12 2 12 -3 0 -6 -5 -11 -12 -11 -6 0 -3 -7
8 -16 10 -8 14 -13 7 -10 -6 4 -14 2 -18 -4 -3 -5 -1 -10 6 -10 7 0 9 -3 6 -7
-4 -3 -2 -12 5 -20 8 -11 7 -12 -5 -7 -13 5 -15 0 -11 -21 3 -20 1 -25 -8 -19
-10 6 -10 4 0 -7 11 -12 14 -12 22 1 6 9 10 10 10 3 0 -6 -4 -14 -10 -18 -5
-3 -7 -12 -3 -21 3 -8 8 -12 11 -10 3 3 11 -2 17 -11 11 -15 15 -16 31 -3 10
8 15 10 11 4 -10 -16 30 -25 43 -10 5 7 7 16 3 20 -4 4 0 4 9 1 9 -4 19 -1 24
6 5 8 3 10 -7 4 -8 -5 -5 2 6 15 12 14 14 20 5 15 -12 -6 -13 -5 -2 6 15 16
16 33 1 23 -8 -4 -8 0 0 15 9 16 9 21 0 21 -7 0 -6 9 5 25 15 23 15 24 -1 18
-15 -6 -16 -4 -5 9 10 13 10 17 0 21 -10 4 -10 7 1 18 12 12 13 12 6 0 -6 -10
-4 -12 5 -6 10 6 10 11 -3 20 -20 14 -23 30 -4 19 7 -5 6 0 -3 11 -9 11 -10
16 -2 11 13 -8 17 6 5 18 -10 10 -12 56 -2 50 4 -2 10 0 14 6 3 5 -2 10 -12
10 -15 0 -16 2 -3 10 12 8 12 10 1 10 -11 0 -11 3 -1 15 7 8 8 15 4 15 -11 0
-10 82 0 98 4 7 2 12 -5 12 -10 0 -10 3 -1 12 16 16 15 31 0 22 -9 -5 -9 -2 1
9 11 14 11 17 0 17 -10 0 -10 3 -2 11 6 6 9 18 6 25 -3 9 1 14 12 14 10 0 14
5 10 13 -4 6 3 1 15 -13 12 -14 18 -19 14 -11 -4 9 -3 12 4 8 11 -8 11 -25 -1
-44 -5 -8 -3 -13 4 -13 7 0 4 -7 -7 -15 -13 -10 -14 -13 -3 -10 10 4 16 0 16
-9 0 -8 -4 -13 -9 -10 -13 8 -10 -10 5 -25 10 -11 9 -13 -5 -8 -10 3 -20 1
-24 -5 -4 -6 -3 -8 2 -5 6 3 16 2 24 -4 13 -7 13 -9 0 -9 -13 0 -13 -1 0 -10
12 -8 12 -10 -5 -11 l-20 0 20 -9 c13 -6 15 -9 5 -9 -13 -1 -13 -2 0 -11 13
-9 13 -10 0 -10 -13 0 -13 -1 0 -10 10 -6 11 -10 3 -10 -7 0 -13 -5 -13 -11 0
-5 4 -8 8 -5 4 2 8 -6 8 -20 0 -16 -5 -23 -12 -20 -8 3 -11 -1 -7 -9 3 -8 8
-13 12 -10 4 2 8 -2 8 -10 0 -8 -4 -12 -9 -9 -4 3 -8 0 -8 -5 0 -6 6 -11 13
-11 8 0 7 -4 -3 -10 -13 -8 -13 -10 -1 -10 11 0 9 -4 -5 -14 -18 -14 -18 -15
-1 -22 15 -5 16 -9 5 -15 -11 -7 -11 -9 1 -9 9 0 7 -5 -6 -17 -10 -10 -13 -14
-6 -9 9 6 18 4 26 -4 8 -8 8 -11 1 -7 -7 4 -17 0 -24 -8 -11 -13 -10 -15 6 -9
18 5 18 5 0 -10 -17 -14 -18 -16 -3 -16 9 0 17 -7 17 -16 0 -11 5 -14 16 -10
15 6 15 4 3 -11 -9 -11 -10 -14 -1 -9 6 4 12 2 12 -3 0 -6 8 -11 18 -11 10 0
24 -6 31 -12 11 -11 12 -10 6 1 -6 11 -4 13 8 8 17 -6 51 29 42 44 -3 3 3 6
12 5 9 0 18 5 21 13 2 8 0 11 -6 7 -6 -4 -8 2 -5 14 3 11 9 18 12 15 4 -2 8 2
8 10 0 8 -4 12 -9 9 -4 -3 -6 5 -4 18 2 13 -1 31 -6 40 -7 14 -5 16 8 11 13
-5 15 -3 9 7 -11 18 -15 131 -4 125 5 -4 6 1 3 9 -3 9 -11 13 -18 10 -6 -3 -2
2 8 10 11 9 14 16 8 16 -7 0 -12 5 -12 11 0 5 6 7 13 3 8 -5 8 -2 -2 9 -7 9
-10 17 -6 17 4 0 2 7 -5 15 -11 13 -10 14 5 9 13 -6 16 -4 10 6 -12 20 -13
100 -1 100 7 0 8 3 1 8 -14 9 -14 72 0 72 5 0 4 4 -4 9 -8 6 -10 14 -5 22 11
18 14 40 5 35 -4 -3 -7 20 -7 49 0 36 3 52 10 48 8 -5 7 -2 0 8 -18 23 -13 46
10 45 16 -1 21 -7 20 -28 0 -15 4 -25 8 -22 4 3 8 0 8 -6 0 -6 5 -8 10 -5 6 3
10 1 10 -4 0 -6 -6 -11 -12 -11 -9 0 -8 -3 2 -9 8 -6 18 -7 23 -4 5 3 6 -4 2
-16 -4 -15 -3 -21 6 -19 7 2 15 -6 17 -17 2 -11 11 -24 18 -28 8 -5 12 -12 9
-18 -3 -5 1 -6 9 -3 10 4 18 -1 22 -11 5 -13 9 -14 15 -3 6 9 9 6 9 -11 0 -17
4 -22 16 -17 9 3 20 6 25 6 6 0 8 4 5 8 -3 5 1 9 9 9 8 0 12 -4 9 -9 -3 -4 0
-8 5 -8 6 0 11 5 11 11 0 6 9 8 22 3 21 -6 22 -5 8 11 -14 17 -13 18 3 12 15
-6 16 -4 6 16 -11 19 -10 20 3 10 12 -10 15 -10 15 0 1 22 8 42 18 49 6 5 5 8
-4 8 -11 0 -11 3 -1 15 7 8 8 15 3 15 -5 0 -10 7 -10 15 0 8 5 15 10 15 6 0 7
3 4 6 -4 4 -12 2 -19 -4 -10 -8 -14 -3 -15 21 -1 17 -8 34 -14 37 -8 6 -8 10
1 15 10 6 8 11 -6 22 -10 7 -19 26 -20 41 -2 40 -7 56 -23 68 -17 13 -25 47
-9 38 7 -5 8 -2 2 7 -5 8 -9 19 -9 24 -1 6 -6 9 -13 8 -7 -2 -12 4 -12 12 0 9
6 12 18 9 9 -3 7 1 -6 8 -12 8 -20 17 -16 20 9 10 -21 49 -31 40 -5 -4 -5 -2
-1 5 4 7 -1 25 -11 40 -10 15 -13 24 -8 21 6 -4 11 1 11 11 0 13 -6 17 -21 13
-18 -5 -19 -4 -5 13 8 10 10 16 4 12 -7 -4 -17 5 -24 23 -7 18 -17 27 -24 23
-6 -4 -4 2 4 12 12 15 12 17 1 10 -11 -6 -13 -4 -8 8 4 11 0 21 -12 29 -11 7
-17 19 -14 32 4 17 3 18 -6 6 -9 -12 -11 -11 -11 8 0 13 -6 22 -15 22 -8 0
-14 3 -14 8 3 19 -2 33 -10 27 -5 -3 -13 0 -17 6 -4 8 -3 9 4 5 7 -4 12 -2 12
3 0 6 -5 11 -11 11 -5 0 -7 5 -4 10 3 6 -1 10 -9 10 -9 0 -16 9 -16 20 0 11
-5 20 -12 20 -6 0 -8 3 -5 7 4 3 -1 12 -11 19 -15 12 -14 12 8 8 14 -3 21 -2
15 3 -13 10 -13 23 -1 42 6 9 5 12 -1 8 -6 -4 -14 0 -17 9 -3 8 -2 12 3 9 5
-3 12 -1 16 5 3 5 1 10 -6 10 -8 0 -8 4 2 16 10 13 10 17 -2 25 -9 6 -10 12
-4 17 15 11 19 46 4 36 -8 -4 -10 -3 -5 5 11 17 18 63 8 58 -4 -3 -8 3 -8 13
0 10 4 16 8 14 4 -3 8 -1 8 5 0 5 -5 13 -10 16 -6 4 -8 11 -4 16 3 5 7 21 10
35 3 19 1 24 -8 18 -10 -5 -10 -4 -1 6 6 7 9 19 6 26 -4 10 0 12 13 7 18 -6
18 -6 2 10 -18 19 -14 51 6 40 6 -3 6 -1 -1 8 -17 17 -16 29 1 29 14 0 31 27
27 43 -1 5 3 6 9 2 5 -3 10 0 11 7 0 7 5 3 11 -9 6 -13 18 -23 26 -23 8 0 21
-8 28 -17 13 -17 14 -17 8 2 -3 11 4 5 15 -14 16 -23 27 -32 41 -28 14 3 17 1
13 -11 -5 -11 -2 -14 10 -9 10 4 23 -3 35 -18 11 -13 22 -21 26 -17 4 3 4 -1
0 -11 -5 -13 -1 -17 16 -17 11 0 18 -4 15 -10 -3 -5 1 -10 10 -10 10 0 13 -5
9 -12 -5 -8 -2 -9 9 -5 9 3 19 1 23 -5 5 -7 2 -8 -7 -4 -8 4 -4 -1 9 -12 12
-11 22 -26 22 -32 0 -9 5 -9 17 1 11 10 14 10 9 2 -4 -7 -2 -13 3 -13 6 0 11
-7 11 -16 0 -9 5 -12 12 -8 7 5 9 2 5 -9 -6 -16 15 -41 26 -30 4 3 7 1 7 -5 0
-7 6 -12 14 -12 7 0 20 -8 27 -17 13 -17 12 -17 -6 -4 -11 7 -8 2 8 -12 15
-14 27 -31 27 -38 0 -8 4 -8 15 1 12 10 14 8 10 -9 -4 -19 6 -26 29 -22 5 1 4
-4 -3 -12 -9 -12 -8 -15 6 -13 10 0 19 -7 21 -18 5 -23 27 -48 36 -39 3 4 6 1
6 -6 0 -7 5 -9 11 -5 8 4 8 0 0 -15 -9 -16 -9 -20 2 -15 8 3 20 -3 28 -13 13
-16 12 -17 -4 -4 -15 12 -17 12 -11 -3 6 -15 17 -20 36 -17 5 0 7 -2 7 -7 -4
-21 2 -32 14 -26 8 5 7 2 -2 -9 -12 -15 -12 -17 4 -10 14 5 17 3 12 -10 -4
-10 -2 -16 5 -14 6 1 13 -4 16 -12 3 -9 0 -11 -8 -6 -8 5 -11 4 -6 -3 4 -6 14
-8 24 -5 15 6 16 5 2 -12 -8 -10 -10 -16 -5 -13 6 4 17 3 25 -3 12 -6 12 -9 2
-9 -11 0 -11 -2 0 -13 7 -7 22 -19 33 -26 14 -9 15 -11 3 -7 -10 3 -20 0 -24
-6 -4 -6 -3 -8 3 -5 5 4 16 -5 23 -18 7 -13 18 -22 23 -18 6 3 7 1 3 -5 -3 -6
4 -20 16 -32 20 -18 20 -20 4 -14 -17 7 -17 5 3 -15 12 -12 19 -26 16 -31 -3
-5 -1 -11 5 -15 6 -4 8 -10 5 -15 -3 -4 3 -7 12 -6 10 0 17 -7 18 -20 1 -12 9
-29 18 -39 20 -19 22 -29 5 -19 -9 6 -9 3 1 -9 7 -9 11 -24 7 -32 -3 -9 -2
-14 2 -11 14 9 33 -10 38 -40 3 -16 9 -33 14 -38 5 -5 6 -15 3 -22 -3 -8 3
-17 12 -20 13 -5 14 -9 3 -15 -10 -7 -9 -9 5 -9 9 0 17 -5 17 -11 0 -5 -4 -8
-9 -4 -5 3 -13 0 -17 -6 -4 -7 -3 -9 2 -6 6 3 16 2 24 -4 11 -6 12 -9 2 -9 -7
0 -10 -5 -7 -10 4 -6 11 -7 17 -4 6 4 6 -1 -1 -14 -8 -16 -7 -21 5 -26 9 -4
14 -13 10 -21 -3 -8 -1 -15 5 -15 6 0 9 -7 5 -15 -3 -8 -1 -15 4 -15 5 0 6 -7
3 -17 -5 -12 -3 -14 7 -8 10 6 11 4 4 -6 -16 -27 -14 -48 8 -63 12 -9 19 -18
15 -22 -3 -4 -2 -16 4 -27 9 -15 8 -18 -2 -12 -8 5 -10 4 -5 -3 13 -22 15 -52
3 -52 -7 0 -6 -4 3 -10 8 -5 11 -10 6 -10 -5 0 1 -8 12 -19 22 -19 30 -37 12
-26 -5 3 -10 1 -10 -4 0 -6 4 -11 9 -11 12 0 9 -33 -4 -42 -6 -5 -3 -8 6 -8 9
0 20 -7 23 -16 5 -13 4 -14 -7 -6 -11 9 -13 6 -9 -18 3 -19 9 -27 16 -23 6 3
6 0 -1 -8 -16 -16 -17 -29 -2 -29 5 0 7 6 3 13 -4 6 -3 9 1 4 11 -9 15 -98 5
-92 -4 2 -5 -7 -2 -21 3 -19 7 -22 13 -12 12 19 11 0 -2 -23 -7 -14 -7 -24 0
-33 7 -9 7 -16 -1 -24 -9 -9 -9 -12 0 -12 7 0 12 -5 12 -11 0 -5 -4 -8 -8 -5
-4 2 -8 -4 -8 -15 0 -10 4 -19 8 -19 4 0 3 -12 -2 -26 -9 -23 -8 -25 7 -20 15
5 15 4 -1 -9 -11 -8 -15 -15 -9 -15 6 0 10 -11 9 -25 0 -14 -5 -25 -11 -25 -7
0 -7 -3 0 -8 13 -9 18 -35 5 -27 -5 3 -10 2 -10 -4 0 -5 5 -13 10 -16 7 -4 6
-13 -1 -26 -7 -15 -7 -24 1 -34 8 -10 8 -15 -1 -20 -8 -6 -7 -10 2 -16 10 -6
10 -9 2 -9 -7 0 -10 -7 -6 -15 3 -9 -2 -22 -13 -31 -12 -8 -13 -12 -4 -9 11 4
15 -3 15 -29 0 -19 -3 -32 -7 -30 -5 3 -6 9 -3 14 3 5 1 11 -4 15 -11 6 -7
-27 5 -48 6 -9 5 -9 -7 0 -12 10 -15 8 -15 -6 0 -11 6 -17 13 -14 7 3 13 0 13
-6 0 -6 -7 -11 -15 -11 -13 0 -14 -4 -4 -21 6 -12 7 -19 1 -15 -5 3 -13 -1
-16 -10 -3 -8 -2 -13 3 -10 5 3 9 -5 9 -19 0 -14 -4 -23 -7 -21 -4 3 -8 -4 -8
-15 -1 -11 2 -17 8 -14 5 4 9 4 9 1 0 -3 -12 -13 -27 -21 -16 -9 -20 -14 -10
-11 9 3 17 1 17 -5 0 -6 5 -7 12 -3 7 4 8 3 4 -5 -4 -6 -11 -9 -16 -6 -4 3
-13 -2 -20 -10 -11 -13 -10 -14 6 -9 18 7 18 6 -1 -16 -11 -13 -14 -20 -7 -16
6 4 12 2 12 -3 0 -6 -5 -11 -11 -11 -6 0 -8 -8 -5 -18 4 -11 -2 -27 -14 -40
-21 -23 -14 -32 8 -10 7 7 12 8 12 2 0 -5 -8 -14 -18 -21 -11 -7 -20 -25 -21
-45 -3 -55 -4 -57 -14 -51 -6 4 -8 0 -4 -10 3 -10 2 -17 -4 -17 -6 0 -8 -4 -5
-9 3 -5 -1 -12 -10 -15 -9 -4 -12 -11 -7 -18 4 -7 8 -19 9 -26 2 -10 -1 -11
-12 -1 -8 7 -14 8 -13 3 1 -5 0 -13 -1 -19 -1 -5 -3 -17 -4 -25 0 -9 -13 -16
-34 -18 -18 -2 -30 -7 -27 -13 3 -5 -1 -6 -9 -3 -8 3 -13 11 -10 18 3 7 -2 13
-10 13 -9 0 -12 -6 -8 -16 5 -14 4 -14 -13 -1 -10 8 -16 10 -12 4 4 -7 1 -14
-6 -17 -16 -6 -57 10 -57 23 0 5 -9 1 -21 -11 -11 -11 -24 -18 -27 -14 -4 3
-1 10 7 14 10 6 9 10 -4 14 -9 4 -14 3 -11 -2 3 -5 -12 -11 -33 -13 -48 -4
-63 0 -55 15 5 9 4 9 -6 0 -7 -6 -18 -9 -25 -7 -7 3 -16 1 -19 -4 -3 -5 6 -8
20 -6 14 1 23 0 20 -4 -9 -8 -86 -10 -80 -1 2 4 -3 10 -12 13 -8 3 -12 2 -9
-4 3 -6 2 -10 -4 -10 -5 0 -15 8 -21 18 -10 15 -11 15 -7 -4 3 -13 -1 -21 -9
-21 -7 0 -11 4 -7 10 3 5 -10 7 -30 6 -20 -2 -39 0 -42 3 -4 4 -18 3 -32 -3
-32 -12 -33 -12 -27 9 5 13 4 14 -4 3 -6 -8 -15 -10 -23 -6 -8 6 -11 4 -7 -7
4 -8 0 -15 -8 -15 -7 0 -11 4 -8 9 3 4 0 8 -6 8 -6 0 -8 5 -5 10 3 6 1 10 -6
10 -7 0 -9 -8 -6 -21 4 -17 3 -19 -6 -10 -6 6 -24 11 -40 11 -19 0 -26 4 -21
12 4 7 3 8 -5 4 -6 -4 -9 -11 -6 -16 11 -18 -40 0 -56 19 -9 11 -19 17 -23 14
-3 -4 -6 -1 -6 6 0 7 -5 9 -12 5 -8 -5 -7 0 2 11 8 10 10 16 3 12 -7 -5 -21 1
-33 13 -12 12 -20 15 -21 8 0 -7 -5 -3 -11 10 -6 12 -15 22 -20 22 -5 0 -6 -6
-2 -12 10 -16 -26 11 -43 32 -7 8 -13 11 -13 6 0 -5 -9 -1 -20 9 -11 10 -17
23 -13 29 4 6 0 5 -9 -2 -13 -10 -18 -10 -24 -1 -5 8 -3 9 6 4 9 -5 11 -4 6 4
-4 6 -12 9 -17 5 -5 -3 -17 3 -27 13 -9 11 -13 13 -8 6 5 -8 7 -16 4 -18 -3
-3 -11 6 -18 20 -7 14 -17 25 -22 25 -5 0 -7 -4 -3 -9 3 -5 0 -13 -6 -17 -8
-4 -9 -3 -5 4 4 7 2 12 -3 12 -6 0 -10 6 -8 13 1 6 -7 12 -18 13 -11 1 -24 2
-30 4 -5 1 -13 2 -17 1 -5 0 -8 3 -8 9 0 5 -7 6 -17 3 -10 -4 -14 -2 -10 4 4
6 0 14 -9 17 -8 3 -12 2 -9 -4 3 -6 1 -10 -4 -10 -6 0 -11 5 -11 10 0 14 -27
12 -34 -2 -3 -7 -3 -2 1 12 5 22 4 23 -11 11 -14 -12 -20 -11 -43 10 -14 13
-23 18 -19 12 4 -8 1 -13 -9 -13 -9 0 -13 5 -10 11 9 13 -27 8 -38 -6 -5 -5
-6 -1 -3 11 4 14 2 21 -8 21 -9 0 -13 -4 -11 -8 6 -8 -71 13 -81 24 -11 10
-24 9 -24 -4 0 -5 5 -7 10 -4 6 3 10 2 10 -4 0 -5 -9 -9 -19 -8 -11 0 -19 4
-19 7 2 20 -4 21 -18 4 -8 -10 -13 -14 -10 -7 4 6 2 14 -4 18 -5 3 -10 -1 -10
-11 0 -14 -2 -15 -17 -3 -11 9 -14 10 -9 2 4 -8 -2 -22 -14 -35 -12 -13 -19
-31 -16 -40 2 -11 0 -15 -7 -11 -6 4 -8 0 -4 -10 3 -9 2 -19 -4 -23 -6 -4 -6
-11 1 -19 7 -8 9 -19 5 -25 -3 -5 5 -15 18 -21 14 -6 30 -21 36 -33 7 -12 21
-22 32 -23 12 -1 17 2 12 10 -3 7 3 3 15 -7 25 -21 31 -36 7 -16 -9 8 -15 8
-15 2 0 -11 38 -28 54 -24 5 2 6 -5 2 -14 -5 -14 -4 -15 8 -5 12 10 14 8 9
-11 -3 -16 -2 -19 5 -10 7 11 11 10 16 -4 3 -9 4 -19 1 -22 -3 -3 -5 1 -5 8 0
7 -3 10 -7 7 -3 -4 -12 -2 -19 4 -8 7 -14 6 -20 -2 -4 -8 -3 -9 4 -5 7 4 12 2
12 -4 0 -6 -8 -10 -17 -8 -10 2 -17 10 -15 17 1 7 -2 10 -8 6 -6 -3 -8 -11 -5
-16 4 -5 1 -9 -4 -9 -6 0 -11 5 -11 11 0 8 -4 8 -12 2 -19 -15 -137 -8 -165
10 -6 4 -15 2 -19 -4 -4 -7 -3 -9 3 -6 6 4 14 0 17 -9 4 -10 2 -13 -6 -8 -20
12 -83 13 -91 1 -6 -8 -7 -5 -3 6 3 9 1 17 -4 17 -6 0 -10 -6 -10 -12 0 -9 -3
-10 -8 -2 -7 12 -23 11 -63 -1 -22 -7 -23 -7 -9 10 14 17 14 18 -10 5 -14 -8
-29 -13 -34 -12 -5 2 -13 -3 -19 -10 -6 -9 -7 -8 -3 5 3 9 1 17 -4 17 -6 0
-10 -6 -10 -12 0 -9 -3 -10 -8 -2 -7 12 -23 11 -63 -1 -21 -7 -22 -6 -10 8 7
9 18 14 24 10 6 -3 7 -1 3 6 -6 9 -11 9 -21 1 -8 -7 -20 -8 -26 -4 -9 5 -10 2
-6 -9 5 -14 1 -16 -26 -12 -51 8 -61 10 -74 18 -9 6 -11 3 -7 -7 8 -21 -6 -20
-22 2 -13 16 -14 16 -8 -1 5 -13 2 -16 -12 -10 -13 5 -15 3 -9 -8 8 -12 6 -12
-9 0 -15 12 -17 12 -14 0 2 -8 -3 -13 -9 -12 -7 2 -12 -3 -10 -10 1 -7 -6 -11
-18 -9 l-20 4 20 -16 c15 -12 16 -15 5 -16 -10 0 -15 -11 -16 -33 -1 -17 1
-26 3 -19 8 20 22 14 16 -8 -3 -12 0 -20 6 -20 7 0 9 5 5 12 -4 7 -3 8 4 4 6
-4 9 -13 5 -21 -4 -11 -1 -13 11 -9 12 5 15 2 10 -12 -5 -17 -4 -17 11 1 17
20 17 20 12 -2 -3 -13 1 -27 9 -34 10 -8 14 -8 14 0 0 6 -5 11 -12 11 -9 0 -9
3 0 12 17 17 84 17 77 1 -2 -7 0 -13 5 -13 9 0 14 14 11 32 0 5 4 8 10 8 6 0
8 -7 5 -16 -6 -15 -4 -15 11 -3 9 8 14 9 10 3 -4 -7 0 -15 9 -18 12 -5 15 -2
10 10 -4 10 -2 14 6 11 7 -2 12 -10 10 -17 -1 -7 2 -18 7 -24 8 -9 6 -13 -4
-13 -8 0 -15 5 -15 10 0 5 -8 3 -17 -4 -15 -12 -16 -12 -10 4 3 9 2 17 -2 17
-5 0 -11 -5 -13 -12 -2 -6 -12 -12 -21 -14 -9 -1 -15 2 -11 7 3 5 1 9 -5 9 -5
0 -12 -6 -15 -12 -3 -7 -3 -2 0 12 5 24 4 24 -8 5 -14 -22 -49 -25 -72 -6 -11
9 -16 9 -22 0 -5 -8 -3 -10 7 -4 8 5 10 4 6 0 -10 -11 -39 -16 -32 -6 2 4 -2
8 -9 8 -8 0 -12 -7 -8 -15 3 -9 1 -13 -5 -9 -12 7 -26 -20 -18 -33 3 -4 -2
-10 -10 -14 -8 -3 -15 -11 -15 -18 0 -9 3 -8 10 2 8 12 10 11 10 -7 0 -13 5
-23 10 -23 6 0 10 -7 8 -16 -2 -10 5 -18 16 -20 10 -1 23 -7 29 -13 14 -14 37
-14 37 0 0 5 -4 8 -9 5 -4 -3 -17 1 -27 10 -18 15 -18 15 1 6 21 -10 27 -12
46 -12 5 0 7 -6 3 -12 -6 -9 -3 -9 9 0 9 8 25 11 38 7 16 -5 20 -4 15 6 -4 8
0 5 8 -5 14 -17 16 -18 16 -3 0 9 5 17 11 17 5 0 7 -4 4 -10 -3 -5 -1 -10 5
-10 6 0 8 -5 4 -12 -5 -8 -1 -7 10 2 21 16 49 23 40 9 -3 -5 -11 -6 -17 -3 -7
4 -8 3 -4 -2 11 -12 40 -11 49 1 5 6 8 4 8 -5 0 -13 1 -13 10 0 9 13 12 13 24
-3 14 -18 15 -17 21 4 4 12 10 17 14 11 8 -13 53 -19 70 -8 10 7 12 6 6 -4 -6
-10 -4 -12 7 -7 9 3 21 0 28 -6 10 -9 12 -9 8 3 -4 10 0 16 12 16 10 0 16 -4
14 -8 -3 -4 2 -8 11 -8 10 0 13 5 9 13 -6 9 -4 9 8 -1 13 -10 17 -10 21 0 3 7
6 4 6 -7 1 -17 3 -17 11 -5 5 8 10 11 10 7 0 -4 9 -3 20 3 15 8 20 8 18 -1 -2
-6 5 -13 15 -14 9 -2 15 1 11 6 -3 5 0 9 5 9 6 0 11 -5 11 -11 0 -5 4 -7 10
-4 10 6 14 -6 11 -35 -2 -13 -1 -13 8 0 9 12 14 13 30 3 14 -9 22 -9 27 -2 3
6 15 9 25 6 10 -3 20 0 23 7 3 7 5 6 5 -3 1 -11 4 -11 18 0 9 8 14 9 10 3 -4
-7 0 -14 8 -18 17 -6 47 3 41 13 -3 4 4 7 14 7 10 0 16 -6 13 -13 -3 -7 -1
-13 5 -13 6 0 12 5 14 12 2 6 12 12 21 14 9 1 15 -2 11 -7 -3 -5 -10 -6 -16
-3 -7 4 -8 2 -4 -4 5 -9 14 -9 34 1 27 14 66 12 58 -2 -6 -9 22 -7 46 3 9 4
21 5 27 2 5 -3 12 0 14 6 4 10 6 9 6 -1 1 -11 4 -11 18 0 9 8 14 9 10 3 -12
-20 25 -26 45 -7 14 13 18 13 13 2 -4 -10 1 -15 14 -15 14 0 17 4 10 12 -8 9
-5 11 10 7 12 -3 21 -9 21 -14 0 -5 5 -9 11 -9 5 0 7 5 3 11 -5 9 1 10 20 5
18 -4 25 -3 21 3 -3 7 0 8 9 5 9 -3 13 -10 10 -15 -3 -5 2 -6 10 -3 9 3 14 9
12 13 -3 4 4 7 14 7 10 0 16 -6 13 -13 -3 -7 -1 -13 5 -13 6 0 12 5 14 12 2 6
12 12 21 14 9 1 15 -2 11 -7 -3 -5 -10 -6 -16 -3 -7 4 -8 2 -4 -4 5 -9 14 -9
34 1 29 14 66 12 57 -4 -3 -5 1 -6 10 -3 13 5 13 9 3 23 -12 14 -11 15 5 2 22
-17 67 -21 67 -6 0 5 5 3 11 -5 8 -12 12 -12 16 -2 4 10 8 9 18 -5 13 -17 14
-17 35 2 14 13 19 14 15 4 -4 -10 1 -15 14 -15 14 0 17 4 10 12 -8 9 -5 11 10
7 12 -3 21 -9 21 -14 0 -5 5 -9 11 -9 5 0 7 5 3 11 -5 9 1 10 20 5 18 -4 25
-3 21 3 -3 7 0 8 9 5 9 -3 13 -10 10 -15 -3 -5 2 -6 10 -3 9 3 14 9 12 13 -3
4 4 7 14 7 10 0 16 -6 13 -13 -3 -7 -1 -13 5 -13 6 0 12 5 14 12 2 6 12 12 21
14 9 1 15 -2 11 -7 -3 -5 -10 -6 -16 -3 -7 4 -8 2 -4 -4 5 -9 14 -9 34 1 27
14 66 12 58 -2 -6 -9 22 -7 46 3 9 4 21 5 27 2 5 -3 12 0 14 6 4 10 6 9 6 -1
1 -11 4 -11 18 0 9 8 14 9 10 3 -11 -19 21 -25 56 -11 19 8 42 10 57 6 14 -4
19 -7 11 -8 -8 -1 -11 -4 -8 -7 4 -4 12 -2 19 3 7 6 23 13 35 15 16 4 20 2 16
-9 -5 -12 -1 -13 28 -1 35 14 93 13 70 -1 -6 -4 6 -7 28 -7 21 1 37 4 35 7 -2
4 3 10 12 13 10 4 13 2 8 -6 -5 -8 -1 -9 12 -4 22 9 22 9 54 7 20 -1 22 -3 10
-11 -9 -6 -10 -10 -3 -10 6 0 14 4 17 9 3 5 17 11 30 13 18 4 23 1 19 -9 -5
-12 -1 -12 28 -1 35 14 93 13 70 -1 -6 -4 6 -7 28 -7 21 1 37 4 35 7 -2 4 3
10 12 13 10 4 13 2 8 -6 -5 -8 -1 -9 12 -4 22 9 22 9 54 7 20 -1 22 -3 10 -11
-9 -6 -10 -10 -3 -10 6 0 14 4 17 9 3 5 17 11 30 13 18 4 23 1 19 -9 -5 -12
-1 -12 28 -1 35 14 93 13 70 -1 -6 -4 6 -7 28 -7 21 1 37 4 35 7 -2 4 3 10 12
13 10 4 13 2 8 -6 -5 -8 -1 -9 12 -4 22 9 22 9 54 7 20 -1 22 -3 10 -11 -9 -6
-10 -10 -3 -10 6 0 14 4 17 9 3 5 17 11 30 13 18 4 23 1 19 -9 -5 -12 -1 -12
28 -1 35 14 93 13 70 -1 -6 -4 6 -7 28 -7 21 1 37 4 35 7 -2 4 5 9 15 12 12 3
18 0 15 -7 -2 -7 4 -12 15 -12 14 0 17 4 10 12 -8 9 -5 11 10 7 12 -3 21 -9
21 -14 0 -5 5 -9 11 -9 5 0 7 5 3 11 -5 9 1 10 20 5 18 -4 25 -3 21 3 -3 7 0
8 9 5 9 -3 14 -9 11 -13 -2 -4 3 -8 11 -8 8 0 13 6 10 12 -3 8 4 10 21 7 18
-3 21 -7 11 -13 -7 -5 2 -6 22 -2 19 3 56 7 82 7 25 1 44 5 40 10 -3 5 2 6 12
3 10 -4 15 -3 11 3 -3 6 -2 10 3 10 5 0 7 12 4 26 -3 19 -1 25 7 20 14 -9 10
16 -4 26 -5 4 -1 8 10 8 18 0 20 6 20 44 -1 25 2 43 6 40 4 -2 9 3 13 11 3 8
0 17 -6 21 -7 5 -8 2 -3 -6 5 -9 4 -11 -4 -6 -9 6 -9 11 0 22 13 16 23 19 14
4 -3 -6 1 -7 9 -4 14 5 14 8 1 21 -17 16 -20 27 -6 18 5 -3 12 -1 16 5 3 5 1
10 -4 10 -6 0 -11 5 -11 11 0 5 5 7 10 4 13 -8 8 18 -5 27 -6 5 -5 8 4 8 7 0
11 6 7 15 -3 8 0 15 6 15 6 0 5 6 -3 17 -11 13 -11 15 -1 9 9 -5 12 -3 10 7
-2 9 6 23 17 32 11 9 15 14 8 11 -6 -4 -14 -2 -18 4 -3 5 -2 10 4 10 6 0 8 7
5 15 -4 9 0 15 7 15 9 0 10 3 4 8 -13 9 -18 35 -5 27 6 -4 10 6 10 24 0 16 5
33 10 36 6 3 10 11 10 17 0 7 -5 6 -14 -1 -12 -10 -13 -8 -9 9 4 13 11 19 20
16 8 -4 11 -1 7 5 -11 18 -6 100 8 117 11 14 10 15 -7 9 -19 -7 -19 -6 -2 7
18 14 18 15 0 26 -17 11 -17 11 1 6 17 -6 17 -5 5 11 -12 14 -12 16 0 8 11 -6
13 -1 9 24 -3 23 -1 31 11 32 9 1 5 5 -9 9 -15 5 -18 8 -8 9 21 1 28 21 16 44
-5 9 -5 17 0 17 5 0 9 7 9 15 0 8 -5 11 -10 8 -7 -4 -7 1 -2 13 4 10 9 55 10
99 1 44 7 90 13 102 9 17 9 24 0 29 -6 4 -8 3 -4 -4 3 -6 3 -13 -2 -16 -4 -2
-8 9 -7 25 0 21 4 28 14 24 12 -5 12 -3 0 11 -18 21 -19 54 -2 54 8 0 11 5 8
10 -4 6 -9 8 -13 6 -4 -2 -7 38 -7 90 0 64 4 93 11 90 6 -2 11 2 11 10 0 8 -5
13 -11 11 -13 -5 -14 81 -1 102 5 10 4 12 -3 7 -7 -4 -12 -1 -12 9 0 9 4 14 8
11 4 -2 8 4 8 14 0 12 -5 16 -16 12 -12 -5 -13 -3 -3 9 10 12 10 18 0 29 -10
10 -9 11 3 5 13 -8 13 -7 1 8 -7 9 -9 17 -4 17 5 0 10 7 10 15 0 8 -4 12 -9 9
-13 -8 -10 10 5 25 10 11 10 13 -1 7 -8 -5 -12 0 -12 14 0 13 4 19 12 14 7 -4
8 -3 4 4 -4 6 -14 9 -24 6 -14 -5 -15 -4 -2 5 13 10 13 12 0 21 -13 9 -12 12
4 25 19 14 12 21 -16 16 -14 -2 -9 11 10 26 9 8 11 11 3 7 -11 -5 -13 -3 -8 9
3 10 2 17 -3 17 -6 0 -6 10 0 26 7 18 7 30 0 39 -5 6 -7 15 -2 19 4 4 -1 12
-10 17 -10 5 -15 16 -12 24 4 8 10 12 16 9 5 -3 4 3 -3 14 -7 12 -18 18 -24
14 -5 -3 -4 2 4 11 11 14 11 17 0 17 -11 0 -11 2 1 10 12 8 12 10 1 10 -11 0
-11 3 0 17 8 9 9 14 3 10 -7 -4 -15 0 -18 9 -3 8 -2 13 2 10 5 -3 9 1 9 9 0 8
-4 12 -8 10 -4 -3 -10 2 -13 11 -3 8 -2 12 4 9 6 -3 10 -2 10 3 0 6 -7 12 -15
16 -8 3 -15 11 -15 18 0 9 3 8 10 -2 6 -9 10 -10 10 -3 0 6 -5 15 -11 19 -8 4
-7 9 2 15 11 7 11 9 1 9 -7 0 -10 5 -7 10 3 6 1 10 -4 10 -6 0 -11 5 -11 11 0
5 6 7 13 3 8 -6 8 -3 -1 9 -8 10 -11 25 -7 39 6 21 6 21 -6 5 -13 -15 -14 -13
-16 25 -2 23 -9 45 -15 50 -10 6 -10 8 0 8 6 0 12 5 12 11 0 5 -4 7 -10 4 -5
-3 -10 1 -10 10 0 10 -5 14 -12 10 -7 -4 -4 1 6 9 16 13 17 16 4 16 -10 0 -15
10 -16 32 0 17 -7 35 -14 39 -10 7 -10 9 0 9 6 0 12 5 12 11 0 5 -4 7 -10 4
-5 -3 -10 -1 -10 5 0 6 -5 8 -11 4 -8 -5 -8 -1 0 14 8 15 8 23 0 27 -6 4 -8
13 -5 21 3 8 1 14 -5 14 -6 0 -7 5 -4 10 3 6 1 10 -6 10 -6 0 -9 8 -6 19 3 14
1 18 -10 14 -13 -5 -13 -2 -4 14 8 17 7 24 -6 34 -14 12 -16 12 -8 0 5 -10 4
-12 -4 -7 -9 6 -9 11 1 24 8 10 9 13 1 9 -6 -4 -14 -3 -18 3 -3 5 0 10 7 10 8
0 6 5 -5 11 -14 8 -15 14 -7 24 8 9 8 15 0 20 -6 3 -8 11 -5 16 4 5 -2 6 -11
2 -13 -5 -16 -3 -11 10 4 10 0 20 -10 25 -10 6 -14 17 -11 30 4 13 0 23 -9 26
-12 5 -13 9 -3 21 10 12 8 13 -9 10 -19 -3 -20 -1 -10 17 6 11 7 18 2 15 -15
-9 -33 18 -33 49 0 8 -5 12 -10 9 -6 -4 -10 -3 -9 2 4 26 -2 44 -13 37 -8 -5
-7 0 2 11 9 11 10 16 3 11 -8 -4 -13 -2 -13 4 0 6 -5 8 -12 4 -9 -5 -9 -2 1 9
9 12 10 17 2 17 -7 0 -11 8 -9 18 2 9 -3 16 -9 15 -12 -3 -17 9 -14 30 0 4 -3
7 -9 7 -5 0 -6 8 -3 18 6 15 5 16 -13 2 -10 -8 -16 -10 -11 -5 4 4 0 20 -10
34 l-16 26 24 -20 24 -20 -24 27 c-13 15 -29 24 -35 21 -6 -4 -4 2 4 12 9 11
10 16 3 11 -9 -5 -13 -1 -13 12 0 11 -7 23 -16 26 -8 3 -13 10 -9 15 3 5 -4
12 -15 16 -11 3 -20 11 -20 16 0 6 9 5 23 -1 21 -11 21 -10 3 4 -11 9 -27 16
-35 16 -14 0 -14 1 -1 10 10 6 11 10 3 10 -7 0 -13 9 -13 21 0 11 -4 18 -9 14
-10 -5 -35 30 -36 50 0 6 -5 10 -12 10 -6 0 -15 4 -20 9 -5 5 -3 6 5 2 6 -4
12 -2 12 3 0 6 -8 11 -17 11 -15 0 -16 2 -3 10 11 7 11 10 2 10 -8 0 -10 5 -6
13 5 8 2 7 -9 -2 -10 -8 -20 -11 -24 -7 -3 3 -1 6 5 6 9 0 9 6 0 25 -6 13 -15
22 -19 19 -5 -3 -9 2 -9 10 0 9 -5 16 -11 16 -6 0 -9 7 -6 14 4 11 1 13 -11 9
-9 -3 -14 -3 -10 1 4 5 -3 18 -16 30 -18 17 -18 18 -1 6 20 -15 20 -15 1 8
-11 12 -26 22 -35 22 -13 0 -13 2 -2 9 11 7 9 10 -8 16 -11 3 -21 15 -21 25 0
10 -4 22 -10 25 -6 4 -7 -1 -3 -12 6 -15 5 -16 -9 -3 -11 11 -13 19 -6 28 8 9
7 11 -7 6 -13 -5 -16 -4 -11 4 4 7 2 12 -4 12 -6 0 -8 5 -4 12 4 6 3 9 -2 5
-5 -3 -18 1 -29 9 -13 10 -15 14 -4 14 8 1 5 6 -9 13 -12 7 -19 17 -15 22 4 4
0 5 -10 2 -10 -4 -16 -3 -13 2 3 5 -5 16 -19 25 -14 9 -25 23 -25 32 0 9 -5
12 -12 8 -9 -6 -9 -3 0 9 12 14 11 16 -7 12 -16 -3 -21 1 -21 16 0 11 -4 17
-10 14 -5 -3 -10 -1 -10 6 0 7 -3 9 -7 6 -3 -4 -14 7 -24 23 -11 17 -26 30
-34 30 -10 0 -13 5 -9 12 5 8 2 9 -10 5 -10 -4 -15 -3 -11 3 3 6 -1 13 -9 16
-9 3 -16 12 -16 19 0 8 -5 17 -12 21 -7 5 -8 3 -3 -5 6 -10 3 -11 -14 -2 -11
7 -21 16 -21 21 0 6 -7 10 -15 10 -8 0 -14 6 -13 13 2 6 -4 12 -12 12 -8 0
-23 12 -33 28 -11 15 -23 27 -29 27 -5 0 -6 6 -2 13 6 9 5 9 -8 0 -18 -15 -29
-7 -21 15 4 10 2 13 -2 9 -5 -4 -15 3 -23 15 -7 13 -11 15 -8 6 3 -10 1 -18
-4 -18 -9 0 -14 14 -12 32 1 3 -5 9 -14 12 -8 3 -12 1 -9 -4 3 -5 -1 -7 -9 -4
-9 3 -14 10 -13 14 1 4 0 7 -3 6 -11 -2 -38 29 -32 38 3 5 0 6 -7 2 -17 -11
-41 12 -35 32 5 15 4 15 -6 0 -6 -10 -16 -18 -23 -18 -8 0 -8 3 2 9 9 6 10 11
2 15 -6 4 -15 4 -21 1 -5 -3 -7 0 -4 8 3 8 0 18 -7 23 -8 4 -10 3 -5 -4 5 -8
2 -10 -8 -6 -9 3 -13 10 -10 15 4 8 -24 14 -48 10 -4 0 -5 5 -2 13 3 8 0 17
-7 22 -7 4 -10 3 -6 -4 5 -6 -2 -6 -18 1 -14 7 -25 18 -25 25 0 7 -4 10 -10 7
-5 -3 -10 -1 -10 6 0 9 -3 9 -14 0 -12 -10 -14 -7 -11 15 2 26 2 27 -11 9 -13
-18 -20 -9 -15 19 1 5 -5 4 -13 -4 -12 -9 -16 -9 -16 -1 0 7 -4 9 -10 6 -5 -3
-10 -2 -10 4 0 5 6 12 13 15 8 4 7 5 -3 5 -32 -2 -41 1 -34 14 6 9 4 9 -8 -1
-13 -10 -18 -10 -24 -1 -5 8 -3 9 6 4 8 -5 11 -4 6 3 -4 6 -13 9 -21 5 -9 -3
-15 1 -15 8 0 11 -3 11 -10 -1 -8 -13 -10 -12 -10 3 0 10 -4 15 -10 12 -5 -3
-10 -1 -10 4 0 6 -9 11 -20 11 -11 0 -20 5 -20 10 0 6 5 10 12 10 6 0 9 3 6 6
-4 3 -15 1 -27 -5 -14 -8 -22 -8 -27 1 -4 7 -3 8 4 4 7 -4 12 -2 12 3 0 6 -10
12 -22 13 -13 0 -30 1 -38 2 -8 1 -16 9 -18 19 -4 20 -7 20 -31 8 -13 -7 -18
-6 -18 4 0 8 5 11 11 8 6 -3 5 0 -2 8 -11 12 -14 12 -22 -1 -9 -13 -10 -13
-11 0 -1 8 -1 19 0 23 1 4 -8 3 -19 -3 -15 -8 -20 -8 -20 1 0 7 -10 9 -25 7
-19 -4 -23 -2 -15 7 8 9 6 14 -5 19 -9 3 -13 2 -10 -4 3 -6 -1 -7 -9 -4 -9 3
-13 10 -10 15 3 5 -6 5 -20 -1 -21 -7 -24 -6 -19 6 4 10 1 15 -8 14 -27 -4
-40 0 -34 10 9 14 -8 12 -24 -2 -11 -11 -12 -10 -7 0 12 20 -13 45 -30 31 -11
-9 -14 -8 -14 2 0 11 -2 11 -10 -1 -6 -9 -10 -11 -10 -3 0 7 -7 10 -15 7 -8
-4 -17 1 -21 9 -3 9 -12 18 -20 21 -8 3 -13 2 -10 -3 4 -5 -3 -7 -14 -4 -11 3
-20 10 -20 15 0 7 -5 6 -13 -1 -19 -15 -30 -1 -14 17 10 13 9 14 -10 3 -19
-10 -23 -9 -23 4 0 8 -5 15 -11 15 -6 0 -8 -7 -5 -17 6 -15 5 -16 -11 -1 -10
8 -24 13 -32 10 -9 -3 -12 0 -9 10 4 8 0 15 -8 15 -7 0 -11 -4 -8 -9 9 -14
-14 -9 -30 7 -18 18 -30 20 -20 3 6 -10 4 -10 -7 0 -7 6 -23 12 -36 12 -14 0
-23 6 -23 15 0 8 -5 15 -11 15 -5 0 -8 -4 -5 -9 4 -5 -2 -8 -11 -6 -10 2 -22
4 -26 4 -5 1 -5 7 -1 14 5 8 2 8 -9 -2 -13 -10 -17 -10 -17 -1 0 9 -4 9 -17
-1 -11 -10 -14 -10 -9 -1 5 8 1 12 -13 12 -10 0 -22 -6 -25 -12 -3 -7 -3 -3 0
10 3 12 1 22 -5 22 -6 0 -11 -6 -11 -12 0 -7 -5 -5 -11 5 -8 13 -14 15 -29 7
-13 -7 -20 -6 -23 3 -4 8 -6 8 -6 -2 -1 -11 -5 -10 -17 5 -8 10 -13 13 -9 7 4
-9 1 -11 -9 -7 -9 3 -14 10 -11 14 3 5 1 11 -4 14 -5 4 -13 1 -17 -5 -5 -8 -3
-9 6 -4 9 6 11 4 5 -5 -6 -10 -11 -9 -22 5 -7 11 -13 13 -13 7 0 -7 -5 -12
-11 -12 -5 0 -7 6 -3 13 6 9 4 9 -8 -1 -9 -7 -19 -9 -22 -4 -9 15 -45 22 -42
8 2 -6 1 -8 -1 -3 -3 4 -9 5 -14 2 -5 -4 -6 2 -2 12 5 15 3 16 -8 6 -7 -7 -17
-13 -22 -13 -4 0 -5 6 -1 13 6 9 5 9 -7 0 -11 -9 -22 -8 -47 4 -25 12 -35 13
-46 4 -10 -8 -16 -9 -21 -1 -3 6 -11 8 -16 5 -5 -4 -9 -1 -9 6 0 10 -3 10 -11
2 -9 -9 -16 -9 -29 0 -14 8 -23 7 -36 -4 -11 -9 -15 -9 -10 -1 4 7 1 12 -9 12
-9 0 -14 -4 -10 -9 3 -5 -9 -2 -27 7 -39 19 -60 24 -52 11 3 -5 0 -9 -5 -9 -6
0 -11 5 -11 10 0 6 -27 10 -60 10 -41 0 -60 -4 -60 -12 0 -10 -2 -10 -9 0 -6
11 -60 13 -265 11 -171 -2 -253 -6 -246 -13z m86 -3 c-7 -8 -56 -11 -61 -4 -2
4 12 7 31 8 19 0 33 -1 30 -4z m-122 -11 c3 -5 -1 -9 -9 -9 -8 0 -12 4 -9 9 3
4 7 8 9 8 2 0 6 -4 9 -8z m-1061 -257 c-3 -9 -8 -14 -10 -11 -3 3 -2 9 2 15 9
16 15 13 8 -4z m2952 5 c3 -5 1 -10 -4 -10 -6 0 -11 5 -11 10 0 6 2 10 4 10 3
0 8 -4 11 -10z m1303 -835 c-3 -3 -9 2 -12 12 -6 14 -5 15 5 6 7 -7 10 -15 7
-18z m-1437 -708 c-10 -9 -11 -8 -5 6 3 10 9 15 12 12 3 -3 0 -11 -7 -18z
m159 -37 c0 -5 -2 -10 -4 -10 -3 0 -8 5 -11 10 -3 6 -1 10 4 10 6 0 11 -4 11
-10z m290 -246 c0 -8 -19 -13 -24 -6 -3 5 1 9 9 9 8 0 15 -2 15 -3z m-1190
-99 c0 -2 -6 -8 -13 -14 -10 -8 -14 -7 -14 2 0 8 6 14 14 14 7 0 13 -1 13 -2z
m-1579 -118 c-10 -9 -11 -8 -5 6 3 10 9 15 12 12 3 -3 0 -11 -7 -18z m1596
-32 c0 -8 -4 -12 -9 -9 -4 3 -8 9 -8 15 0 5 4 9 8 9 5 0 9 -7 9 -15z m-1392
-114 c3 -5 1 -12 -5 -16 -5 -3 -10 1 -10 9 0 18 6 21 15 7z m-630 -39 c-3 -3
-11 0 -18 7 -9 10 -8 11 6 5 10 -3 15 -9 12 -12z m475 -52 c-24 -15 -36 -11
-14 4 10 8 21 12 24 10 2 -3 -2 -9 -10 -14z m330 -80 c0 -5 -5 -10 -11 -10 -5
0 -7 5 -4 10 3 6 8 10 11 10 2 0 4 -4 4 -10z m-1400 -19 c0 -6 -4 -12 -8 -15
-5 -3 -9 1 -9 9 0 8 4 15 9 15 4 0 8 -4 8 -9z m231 -8 c12 -16 12 -17 -2 -6
-9 7 -20 9 -24 5 -5 -4 -5 -1 -1 6 9 16 11 15 27 -5z m1224 -348 c-1 -14 3
-28 9 -32 6 -3 8 -3 4 2 -4 4 -3 17 3 28 9 15 8 18 -3 12 -7 -5 -10 -5 -6 -1
3 4 8 7 10 5 2 -1 14 3 27 10 14 8 21 9 17 2 -4 -6 -2 -11 4 -11 6 0 8 -4 5
-10 -3 -5 -1 -10 4 -10 6 0 11 9 11 20 0 20 0 20 20 2 25 -23 61 -23 84 1 25
25 31 21 12 -8 -9 -14 -13 -25 -9 -25 12 -1 -19 -17 -47 -24 -14 -4 -20 -4
-13 1 8 6 4 12 -13 20 -21 10 -23 9 -14 -6 6 -13 5 -18 -6 -18 -7 0 -14 7 -14
16 0 11 -3 11 -14 -4 -11 -15 -17 -17 -28 -7 -8 6 -18 9 -22 5 -10 -11 -36
-12 -36 -2 0 5 -10 9 -22 9 -18 0 -20 -2 -8 -10 12 -7 10 -9 -8 -7 -28 2 -28
11 0 29 17 11 19 16 8 23 -9 5 -11 4 -6 -3 4 -7 3 -12 -2 -12 -4 0 -17 -8 -28
-18 -22 -20 -69 -26 -53 -6 8 9 5 11 -12 7 -19 -5 -20 -4 -10 16 7 11 14 21
17 21 3 0 2 -4 -1 -10 -3 -5 1 -10 10 -10 12 0 15 5 11 16 -5 13 -4 14 7 6 8
-7 18 -8 22 -4 5 4 5 1 0 -7 -5 -9 -3 -12 6 -9 8 3 13 10 12 16 -3 11 28 9 47
-3 6 -3 10 1 10 10 0 9 4 14 9 11 5 -4 8 -17 6 -31z m144 21 c11 -14 6 -15
-27 -7 -4 1 8 21 12 21 2 0 9 -6 15 -14z m28 -8 c-3 -8 -6 -5 -6 6 -1 11 2 17
5 13 3 -3 4 -12 1 -19z m68 12 c-3 -5 1 -10 9 -10 9 0 16 5 16 11 0 5 5 7 11
3 8 -4 7 -9 -2 -15 -8 -5 -10 -9 -5 -9 5 0 3 -7 -4 -15 -7 -8 -9 -15 -5 -15 5
0 5 -3 2 -7 -4 -3 -17 2 -29 13 -18 15 -20 16 -9 2 7 -10 10 -18 5 -19 -5 0
-17 -2 -27 -4 -15 -3 -16 -1 -6 11 6 8 8 14 3 14 -4 0 3 11 16 25 24 26 36 33
25 15z m-3595 -56 c0 -8 -19 -13 -24 -6 -3 5 1 9 9 9 8 0 15 -2 15 -3z m6372
-228 c7 4 8 2 4 -5 -9 -13 -26 -5 -25 12 0 9 2 8 6 -1 2 -6 10 -9 15 -6z
m1448 -36 c0 -5 -2 -10 -4 -10 -3 0 -8 5 -11 10 -3 6 -1 10 4 10 6 0 11 -4 11
-10z m-2957 -75 c-3 -9 -8 -14 -10 -11 -3 3 -2 9 2 15 9 16 15 13 8 -4z
m-1498 -14 c-3 -6 -11 -11 -16 -11 -5 0 -4 6 3 14 14 16 24 13 13 -3z m-640
-1 c-3 -5 -12 -10 -18 -10 -7 0 -6 4 3 10 19 12 23 12 15 0z m80 0 c-3 -5 -12
-10 -18 -10 -7 0 -6 4 3 10 19 12 23 12 15 0z m80 0 c-3 -5 -12 -10 -18 -10
-7 0 -6 4 3 10 19 12 23 12 15 0z m80 0 c-3 -5 -12 -10 -18 -10 -7 0 -6 4 3
10 19 12 23 12 15 0z m3442 -6 c-3 -4 -2 -16 4 -28 10 -20 9 -20 -5 -2 -14 17
-13 36 1 36 4 0 3 -3 0 -6z m-1541 -69 c-1 -8 -5 -17 -8 -21 -5 -4 -4 16 1 34
3 9 9 -1 7 -13z m-381 -114 c3 -5 1 -12 -5 -16 -5 -3 -10 1 -10 9 0 18 6 21
15 7z m-3208 -268 c-4 -3 -1 -13 6 -22 11 -14 10 -14 -5 -2 -16 12 -16 31 -1
31 4 0 3 -3 0 -7z m-1327 -818 c11 -13 10 -14 -4 -9 -9 3 -16 10 -16 15 0 13
6 11 20 -6z m4241 -409 c6 3 8 13 4 23 -5 12 -3 13 6 4 6 -6 18 -9 25 -6 8 3
14 0 14 -7 0 -6 -4 -9 -8 -6 -4 2 -8 -4 -8 -15 0 -19 1 -19 13 -3 7 10 13 25
14 33 0 11 3 10 8 -4 5 -11 4 -27 -2 -35 -10 -17 -57 -22 -57 -7 0 5 -8 3 -17
-4 -11 -10 -14 -10 -9 -1 5 8 1 12 -12 12 -15 0 -20 6 -18 24 1 24 1 24 19 5
10 -11 23 -17 28 -13z m122 21 c4 3 7 0 7 -7 0 -7 3 -10 7 -7 3 4 12 2 20 -4
9 -8 13 -8 13 -1 0 6 -8 16 -17 21 -24 14 -7 14 18 0 11 -5 17 -14 13 -20 -3
-5 -1 -16 5 -23 8 -9 7 -13 -4 -13 -8 0 -15 5 -15 10 0 5 -6 4 -14 -2 -12 -10
-17 -8 -27 10 l-11 22 -12 -21 c-8 -15 -15 -19 -26 -12 -12 8 -12 10 -1 10 8
0 11 6 7 16 -4 10 -2 13 6 8 8 -5 9 -2 4 11 -5 14 -4 16 7 7 8 -7 17 -9 20 -5z
m135 -25 c13 11 15 10 10 -3 -4 -9 -1 -16 7 -16 7 0 11 6 8 14 -3 9 0 11 10 7
8 -3 18 0 22 6 6 9 9 9 15 -1 7 -10 12 -10 26 2 15 12 15 10 -1 -12 -18 -24
-44 -31 -30 -8 3 5 -1 6 -9 3 -9 -3 -14 -9 -12 -13 7 -10 -82 -6 -92 4 -4 4
-1 5 7 0 9 -5 12 -4 7 3 -4 6 -13 9 -20 6 -10 -4 -14 2 -12 19 l1 25 24 -24
c20 -20 26 -22 39 -12z m2 16 c0 -14 -18 -17 -28 -5 -8 10 -6 13 9 13 10 0 19
-4 19 -8z m50 2 c0 -5 -4 -10 -10 -10 -5 0 -10 5 -10 10 0 6 5 10 10 10 6 0
10 -4 10 -10z m-3963 -232 c-3 -8 -6 -5 -6 6 -1 11 2 17 5 13 3 -3 4 -12 1
-19z m640 0 c-3 -8 -6 -5 -6 6 -1 11 2 17 5 13 3 -3 4 -12 1 -19z m389 10 c4
-7 4 -10 -1 -6 -4 4 -14 3 -22 -4 -11 -8 -12 -7 -7 6 7 19 20 21 30 4z m3365
-25 c13 -16 12 -17 -3 -4 -10 7 -18 15 -18 17 0 8 8 3 21 -13z m960 0 c13 -16
12 -17 -3 -4 -10 7 -18 15 -18 17 0 8 8 3 21 -13z m-1156 -3 c3 -5 1 -10 -4
-10 -6 0 -11 5 -11 10 0 6 2 10 4 10 3 0 8 -4 11 -10z m320 0 c3 -5 1 -10 -4
-10 -6 0 -11 5 -11 10 0 6 2 10 4 10 3 0 8 -4 11 -10z m480 0 c3 -5 1 -10 -4
-10 -6 0 -11 5 -11 10 0 6 2 10 4 10 3 0 8 -4 11 -10z m480 0 c3 -5 1 -10 -4
-10 -6 0 -11 5 -11 10 0 6 2 10 4 10 3 0 8 -4 11 -10z m305 4 c0 -8 -19 -13
-24 -6 -3 5 1 9 9 9 8 0 15 -2 15 -3z m320 0 c0 -8 -19 -13 -24 -6 -3 5 1 9 9
9 8 0 15 -2 15 -3z m320 0 c0 -8 -19 -13 -24 -6 -3 5 1 9 9 9 8 0 15 -2 15 -3z
m320 0 c0 -8 -19 -13 -24 -6 -3 5 1 9 9 9 8 0 15 -2 15 -3z m280 0 c0 -8 -19
-13 -24 -6 -3 5 1 9 9 9 8 0 15 -2 15 -3z"/>
<path d="M4891 6554 c0 -11 3 -14 6 -6 3 7 2 16 -1 19 -3 4 -6 -2 -5 -13z"/>
<path d="M5050 6550 c0 -5 5 -10 11 -10 5 0 7 5 4 10 -3 6 -8 10 -11 10 -2 0
-4 -4 -4 -10z"/>
<path d="M5850 4500 c0 -5 5 -10 11 -10 5 0 7 5 4 10 -3 6 -8 10 -11 10 -2 0
-4 -4 -4 -10z"/>
<path d="M5870 9585 c0 -7 30 -13 34 -7 3 4 -4 9 -15 9 -10 1 -19 0 -19 -2z"/>
<path d="M8135 8660 c3 -5 8 -10 11 -10 2 0 4 5 4 10 0 6 -5 10 -11 10 -5 0
-7 -4 -4 -10z"/>
<path d="M5281 8191 c-8 -5 -9 -11 -3 -15 5 -3 12 1 16 9 6 17 6 18 -13 6z"/>
<path d="M4865 8131 c-3 -5 -2 -12 3 -15 5 -3 9 1 9 9 0 17 -3 19 -12 6z"/>
<path d="M4554 8028 l-19 -23 23 19 c12 11 22 21 22 23 0 8 -8 2 -26 -19z"/>
<path d="M4095 7801 c-3 -5 -2 -12 3 -15 5 -3 9 1 9 9 0 17 -3 19 -12 6z"/>
<path d="M7090 7681 c0 -5 5 -13 10 -16 6 -3 10 -2 10 4 0 5 -4 13 -10 16 -5
3 -10 2 -10 -4z"/>
<path d="M3845 7610 c-3 -6 1 -7 9 -4 18 7 21 14 7 14 -6 0 -13 -4 -16 -10z"/>
<path d="M3485 7229 c-4 -6 -5 -12 -2 -15 2 -3 7 2 10 11 7 17 1 20 -8 4z"/>
<path d="M3973 7005 c0 -8 4 -12 9 -9 5 3 6 10 3 15 -9 13 -12 11 -12 -6z"/>
<path d="M4781 6964 c0 -11 3 -14 6 -6 3 7 2 16 -1 19 -3 4 -6 -2 -5 -13z"/>
<path d="M3646 6942 c-2 -4 4 -8 14 -8 10 0 16 4 14 8 -3 4 -9 8 -14 8 -5 0
-11 -4 -14 -8z"/>
<path d="M3815 6940 c3 -5 8 -10 11 -10 2 0 4 5 4 10 0 6 -5 10 -11 10 -5 0
-7 -4 -4 -10z"/>
<path d="M7147 6669 c7 -7 15 -10 18 -7 3 3 -2 9 -12 12 -14 6 -15 5 -6 -5z"/>
<path d="M5309 6583 c-12 -16 -12 -17 2 -6 9 7 20 9 24 5 5 -4 5 -1 1 6 -9 16
-11 15 -27 -5z"/>
<path d="M7188 6563 c7 -3 16 -2 19 1 4 3 -2 6 -13 5 -11 0 -14 -3 -6 -6z"/>
<path d="M1575 6380 c-3 -5 -2 -10 4 -10 5 0 13 5 16 10 3 6 2 10 -4 10 -5 0
-13 -4 -16 -10z"/>
<path d="M5137 6067 c3 -5 -5 -7 -18 -6 -13 2 -30 0 -36 -4 -8 -5 -13 -3 -13
5 0 8 -5 6 -11 -5 -10 -18 -11 -18 -32 0 -11 10 -17 13 -14 6 4 -6 -2 -18 -13
-26 -11 -7 -17 -17 -12 -22 4 -5 0 -4 -8 1 -8 4 -21 9 -28 10 -11 2 -11 0 0
-14 10 -12 10 -14 1 -8 -8 4 -13 2 -13 -5 0 -7 -3 -9 -7 -6 -3 4 -12 -1 -20
-11 -8 -9 -12 -11 -8 -5 4 8 1 11 -9 7 -8 -3 -12 -12 -10 -19 4 -8 -7 -20 -25
-30 -17 -8 -31 -18 -31 -21 0 -3 4 -3 9 0 5 4 4 -5 -2 -18 -7 -14 -15 -20 -18
-14 -3 5 -9 0 -12 -11 -3 -14 -1 -19 6 -15 7 3 4 -1 -5 -9 -10 -8 -15 -17 -11
-20 3 -4 1 -7 -5 -7 -6 0 -9 -6 -6 -13 3 -8 -2 -20 -11 -27 -14 -12 -14 -15 2
-33 10 -11 12 -17 6 -13 -7 4 -13 4 -14 -1 0 -4 -2 -18 -3 -31 -2 -13 2 -26 7
-29 6 -4 7 -1 2 7 -5 8 -4 11 3 6 6 -4 9 -13 6 -21 -4 -8 -11 -12 -17 -8 -6 4
-7 1 -3 -6 5 -7 8 -28 8 -47 0 -19 4 -34 9 -34 5 0 9 -12 9 -26 0 -15 -4 -23
-11 -19 -6 4 -5 -2 2 -13 7 -12 18 -18 24 -14 5 3 4 -1 -3 -10 -10 -13 -10
-17 0 -21 10 -4 10 -6 -1 -6 -9 -1 -8 -6 6 -18 10 -10 13 -14 6 -9 -10 6 -12
4 -7 -8 3 -9 10 -16 16 -16 5 0 6 -4 3 -10 -3 -5 1 -10 10 -10 9 0 13 -5 10
-10 -4 -6 -11 -8 -16 -5 -5 3 -6 -1 -3 -9 3 -9 10 -13 15 -10 5 3 9 -4 9 -15
0 -11 5 -23 12 -27 7 -5 8 -3 3 6 -5 8 -4 11 3 7 5 -4 8 -15 5 -26 -3 -12 5
-25 21 -39 26 -20 37 -40 14 -26 -7 4 -8 3 -4 -5 4 -6 12 -9 17 -6 8 6 14 -16
10 -38 -1 -4 8 -3 19 3 11 6 20 7 19 3 -4 -24 3 -43 15 -43 7 0 20 -8 27 -17
13 -16 12 -17 -4 -4 -15 12 -17 12 -11 -3 3 -9 15 -16 26 -16 10 0 16 -4 13
-10 -3 -5 1 -10 9 -10 14 0 20 -11 17 -32 0 -4 6 -5 14 -2 10 4 15 0 15 -12 0
-11 12 -28 27 -38 14 -11 23 -14 19 -7 -6 9 -3 9 13 -1 12 -7 21 -19 21 -26 0
-8 9 -16 20 -19 11 -3 17 -9 14 -14 -3 -5 2 -9 10 -9 9 0 16 -5 16 -11 0 -5 5
-7 12 -3 8 5 9 2 5 -9 -3 -9 -3 -16 1 -16 22 4 33 -3 29 -15 -8 -20 4 -28 20
-15 10 9 13 8 13 0 0 -7 5 -9 10 -6 6 4 9 2 8 -4 -2 -6 8 -17 22 -24 14 -8 24
-20 22 -27 -3 -11 0 -11 14 1 12 9 15 9 10 2 -4 -8 -1 -13 9 -13 9 0 19 -9 22
-20 5 -17 8 -18 21 -8 13 11 15 10 10 -3 -5 -13 -2 -16 15 -12 18 4 19 3 7 -6
-12 -9 -11 -11 8 -11 12 0 22 -6 22 -12 0 -7 5 -5 11 5 9 15 13 16 27 5 12
-10 14 -10 8 0 -4 7 -2 12 4 12 6 0 8 5 4 13 -5 7 -2 7 10 -2 9 -8 16 -10 15
-5 -4 21 2 28 11 14 8 -13 10 -12 10 3 0 11 4 15 12 11 8 -5 9 -2 4 11 -5 15
-4 16 9 5 13 -11 16 -11 13 1 -2 8 3 13 11 11 9 -2 11 3 7 13 -3 10 -2 14 5 9
6 -3 17 4 26 15 12 19 17 20 31 9 10 -8 13 -9 9 -1 -8 14 20 46 34 38 8 -6 13
9 10 28 -1 5 3 6 8 2 6 -3 23 8 39 25 16 16 33 26 37 22 5 -4 5 2 1 12 -6 17
-4 17 11 5 10 -7 15 -9 11 -5 -4 5 0 15 10 23 9 8 11 11 3 7 -9 -4 -12 -3 -7
4 4 6 13 9 21 5 9 -3 15 1 15 11 0 9 6 16 13 16 7 0 19 9 27 19 7 11 18 17 24
14 6 -4 5 1 -3 10 -7 9 -9 17 -4 17 5 0 18 7 29 16 10 8 13 12 5 8 -9 -5 -12
-3 -7 4 4 7 14 12 22 12 8 0 13 4 10 9 -3 5 2 15 11 22 14 12 16 12 8 -1 -8
-13 -6 -13 8 -1 12 10 14 18 7 32 -9 15 -8 17 6 12 13 -5 15 -3 9 7 -6 10 -4
12 7 7 12 -4 14 -1 10 15 -3 14 -1 19 6 14 8 -5 12 0 12 12 0 11 9 26 19 33
11 8 21 23 23 34 2 11 9 25 17 31 7 6 15 23 16 38 2 15 9 34 16 42 6 8 9 17 6
21 -4 3 1 12 11 20 16 14 16 14 -3 8 -17 -5 -17 -3 5 20 21 23 22 25 5 19 -17
-6 -18 -5 -8 7 6 8 11 19 11 24 0 6 -5 16 -11 24 -9 11 -9 13 0 8 8 -5 11 5 8
38 -2 29 1 45 8 45 7 0 4 5 -6 11 -14 8 -16 14 -6 25 9 11 8 14 -7 15 -18 0
-18 1 1 9 l20 9 -20 0 c-17 1 -17 3 -5 11 13 9 13 10 0 10 -14 0 -19 18 -23
77 0 6 -7 9 -15 5 -9 -3 -13 -1 -9 5 4 6 1 14 -5 16 -10 4 -10 6 0 6 10 1 10
4 0 15 -7 8 -17 11 -23 8 -5 -3 -3 3 5 13 14 17 13 18 -4 12 -13 -5 -17 -3
-13 7 4 10 0 14 -14 11 -11 -2 -17 0 -14 6 4 5 -1 12 -10 15 -9 4 -14 12 -12
18 3 7 -4 12 -17 12 -13 -1 -21 5 -20 15 1 11 -5 15 -16 12 -10 -3 -21 0 -24
6 -4 6 -13 11 -19 11 -7 0 -6 -4 3 -11 12 -9 11 -9 -5 -4 -11 4 -25 8 -32 8
-7 0 -10 4 -7 9 3 5 11 5 17 2 7 -4 8 -3 4 2 -13 14 -31 11 -39 -6 -5 -13 -7
-12 -7 2 -1 14 -5 16 -25 8 -18 -6 -28 -5 -37 6 -9 11 -15 11 -25 3 -8 -6 -11
-15 -9 -20 3 -4 -7 -2 -22 6 -25 13 -29 13 -35 -3 -4 -9 -7 -12 -7 -7 -1 6 -9
11 -20 11 -10 0 -17 -6 -14 -12 2 -7 -1 -15 -8 -20 -8 -4 -10 -3 -5 4 4 7 2
12 -4 12 -6 0 -13 -7 -16 -15 -4 -8 -12 -15 -20 -15 -8 0 -14 -4 -14 -10 0 -5
-7 -6 -17 -3 -11 4 -14 3 -9 -5 4 -7 1 -12 -8 -12 -8 0 -18 -5 -22 -12 -5 -7
-3 -8 6 -3 9 5 11 4 6 -3 -4 -7 -13 -12 -21 -12 -8 0 -17 -5 -21 -12 -5 -7 -3
-8 7 -3 11 7 12 6 2 -7 -7 -8 -9 -19 -5 -24 4 -4 -2 -2 -12 6 -11 8 -17 10
-13 3 4 -6 3 -14 -3 -18 -6 -4 -7 -11 -4 -17 5 -8 1 -9 -11 -4 -15 5 -16 4 -5
-9 11 -13 10 -14 -5 -9 -12 5 -16 4 -12 -3 10 -16 -20 -10 -36 7 -9 10 -9 11
1 6 21 -12 13 14 -12 39 -13 13 -22 26 -20 28 2 2 -7 10 -21 17 -14 7 -25 23
-26 34 0 14 -3 16 -6 7 -4 -10 -9 -8 -20 10 -8 13 -12 16 -9 6 3 -11 2 -15 -4
-12 -6 3 -10 13 -10 20 0 9 -6 12 -17 8 -11 -5 -14 -3 -9 6 6 9 1 12 -17 9
-17 -2 -32 4 -42 17 l-15 20 6 -20 c4 -15 1 -13 -10 5 -8 14 -15 20 -16 14 0
-6 -7 -11 -15 -11 -8 0 -15 5 -15 11 0 7 -3 7 -8 1 -4 -5 -13 -11 -21 -13 -11
-2 -12 0 -4 10 9 10 5 13 -17 13 -15 0 -26 -4 -23 -8z m-343 -295 c3 -5 -1 -9
-9 -9 -8 0 -12 4 -9 9 3 4 7 8 9 8 2 0 6 -4 9 -8z m1400 -387 c-4 -8 -11 -15
-16 -15 -6 0 -5 6 2 15 7 8 14 15 16 15 2 0 1 -7 -2 -15z m-1069 -363 c-3 -3
-11 0 -18 7 -9 10 -8 11 6 5 10 -3 15 -9 12 -12z"/>
<path d="M6490 6040 c-9 -6 -10 -10 -3 -10 6 0 15 5 18 10 8 12 4 12 -15 0z"/>
<path d="M4855 5960 c-3 -5 -1 -10 4 -10 6 0 11 5 11 10 0 6 -2 10 -4 10 -3 0
-8 -4 -11 -10z"/>
<path d="M5420 5966 c0 -2 8 -10 18 -17 15 -13 16 -12 3 4 -13 16 -21 21 -21
13z"/>
<path d="M6670 5920 c6 -11 13 -20 16 -20 2 0 0 9 -6 20 -6 11 -13 20 -16 20
-2 0 0 -9 6 -20z"/>
<path d="M8066 5922 c-3 -5 1 -9 9 -9 8 0 15 4 15 9 0 4 -4 8 -9 8 -6 0 -12
-4 -15 -8z"/>
<path d="M6490 5880 c-9 -6 -10 -10 -3 -10 6 0 15 5 18 10 8 12 4 12 -15 0z"/>
<path d="M4322 5603 c-6 -3 -10 -9 -6 -14 3 -5 0 -10 -5 -10 -6 -1 -15 -2 -20
-3 -5 0 -13 -5 -18 -10 -5 -5 -3 -6 5 -2 14 9 17 -10 2 -19 -14 -9 -2 -27 13
-19 7 3 3 -3 -8 -13 -11 -10 -19 -26 -17 -35 2 -10 -2 -18 -9 -18 -7 0 -1 -10
12 -21 23 -21 23 -21 2 -15 -16 5 -21 3 -19 -9 1 -9 8 -20 15 -24 10 -6 9 -10
-4 -14 -10 -5 -14 -3 -9 5 4 7 3 8 -4 4 -7 -4 -20 -2 -29 3 -14 8 -15 10 -3
11 12 0 13 2 1 9 -9 6 -10 11 -2 15 6 4 11 12 11 17 0 6 -4 7 -10 4 -5 -3 -10
-1 -10 5 0 7 -7 9 -16 6 -15 -6 -15 -4 -3 11 9 11 10 14 2 9 -8 -4 -13 -2 -13
4 0 6 -5 8 -10 5 -6 -4 -24 -8 -41 -10 -21 -3 -28 -1 -22 8 4 7 -2 6 -13 -3
-30 -22 -30 -24 -9 -17 17 6 18 5 4 -5 -8 -7 -18 -21 -22 -31 -4 -11 -12 -15
-19 -11 -7 5 -5 -5 6 -20 10 -16 13 -25 7 -22 -7 5 -11 -2 -11 -18 0 -14 4
-27 10 -31 13 -8 0 -36 -14 -28 -6 3 -3 -3 7 -15 19 -20 18 -21 -5 -16 -23 5
-23 5 2 -10 14 -8 19 -15 12 -16 -13 0 -13 -35 1 -57 4 -6 3 -14 -3 -18 -5 -3
-10 -15 -10 -26 0 -11 4 -18 8 -15 5 3 9 -1 9 -8 0 -8 -7 -12 -15 -8 -11 4
-13 2 -6 -9 4 -8 7 -21 6 -31 -2 -9 2 -19 7 -22 14 -9 2 -37 -13 -29 -6 3 -6
1 2 -8 6 -7 12 -17 12 -22 0 -4 -6 -5 -12 -2 -7 4 -4 -1 6 -9 17 -14 15 -20
-5 -18 -4 1 -5 -7 -2 -18 3 -11 9 -17 14 -14 5 3 6 -2 3 -10 -3 -9 -11 -13
-16 -10 -6 4 -5 -3 1 -15 9 -17 9 -21 -1 -19 -7 2 -12 -2 -11 -8 1 -6 -4 -11
-12 -11 -8 0 -12 4 -9 9 3 4 0 8 -6 8 -7 0 -9 7 -6 16 3 8 2 13 -3 10 -5 -3
-12 1 -15 10 -4 10 -2 13 6 8 8 -5 9 -1 4 12 -13 32 -15 55 -5 49 5 -4 7 -10
4 -15 -3 -5 -2 -11 3 -14 4 -2 8 8 7 24 0 15 -3 26 -7 23 -8 -4 -12 28 -9 56
2 8 -3 10 -11 6 -10 -6 -11 -5 0 6 6 7 12 17 12 22 0 4 -6 5 -12 1 -10 -5 -10
-4 -1 6 6 7 9 19 6 28 -4 10 -2 13 5 8 8 -5 10 -2 6 8 -3 9 -11 13 -18 9 -6
-4 -5 1 3 10 11 14 11 17 0 17 -10 0 -10 3 -1 12 15 15 16 31 0 22 -8 -5 -9
-2 -5 10 4 9 3 15 -2 11 -13 -8 -42 6 -35 17 4 5 -7 8 -25 6 -29 -4 -79 -43
-67 -55 3 -3 -2 -12 -10 -20 -13 -14 -13 -18 0 -39 12 -17 13 -25 4 -30 -7 -4
-8 -3 -4 4 5 8 1 10 -10 5 -15 -5 -15 -7 0 -15 9 -5 16 -14 16 -21 0 -7 -4 -6
-10 3 -7 12 -9 10 -8 -7 2 -14 7 -19 18 -16 9 3 6 -3 -7 -15 -19 -17 -20 -21
-7 -26 10 -4 13 -2 8 6 -4 7 -3 8 4 4 9 -5 8 -14 -4 -31 -9 -15 -11 -25 -5
-29 6 -4 7 -16 2 -29 -10 -27 -3 -49 12 -41 7 3 1 -4 -12 -15 -13 -12 -19 -21
-13 -21 5 0 8 -11 7 -24 -2 -19 1 -23 13 -19 12 3 10 -1 -5 -15 -19 -17 -20
-21 -7 -26 10 -4 13 -2 8 6 -4 7 -3 8 4 4 9 -5 8 -14 -4 -31 -9 -15 -11 -25
-5 -29 6 -4 7 -16 2 -29 -10 -27 -3 -49 12 -41 7 3 1 -4 -12 -15 -13 -12 -19
-21 -13 -21 5 0 8 -11 7 -24 -2 -19 1 -23 13 -19 12 3 10 -1 -5 -15 -19 -17
-20 -21 -7 -26 10 -4 13 -2 8 6 -4 7 -3 8 5 4 9 -6 9 -11 0 -22 -6 -8 -13 -27
-14 -43 -2 -23 1 -28 14 -24 11 3 9 -2 -6 -15 -19 -17 -20 -21 -7 -26 10 -4
13 -2 8 6 -4 7 -3 8 5 4 8 -5 9 -12 3 -19 -13 -16 -12 -69 2 -86 7 -10 7 -13
0 -8 -6 3 -11 0 -11 -9 0 -9 7 -12 19 -8 13 4 16 1 12 -10 -6 -16 19 -17 33
-1 4 4 3 5 -3 2 -6 -3 -11 0 -11 8 0 11 4 12 13 4 8 -7 14 -7 19 1 8 13 25 3
21 -13 -1 -7 -1 -9 1 -4 3 4 9 5 13 2 5 -3 12 0 16 6 5 8 3 9 -6 4 -9 -6 -11
-4 -6 4 8 12 20 7 22 -10 1 -5 2 -12 3 -15 0 -3 14 4 30 16 19 13 32 17 36 10
4 -6 11 -7 17 -4 7 4 8 2 4 -5 -4 -6 -12 -8 -18 -5 -7 4 -8 2 -4 -4 5 -9 13
-9 27 -2 11 6 17 16 13 21 -4 7 2 7 15 0 12 -7 26 -9 31 -6 5 3 12 0 16 -6 5
-8 3 -9 -6 -4 -9 5 -11 4 -6 -3 5 -9 13 -9 26 -2 13 7 21 7 25 0 8 -13 25 -13
25 1 0 5 -4 8 -9 4 -5 -3 -12 -1 -16 4 -3 6 -12 8 -20 4 -8 -3 -15 -1 -15 5 0
11 25 10 36 -1 4 -4 14 -1 22 6 10 7 13 8 9 1 -4 -7 0 -17 8 -24 13 -11 14
-10 9 4 -3 9 -2 16 4 16 5 0 12 -7 16 -15 3 -8 12 -12 21 -9 8 3 13 10 10 15
-6 9 29 4 48 -8 21 -13 39 -12 33 2 -3 10 2 12 21 9 24 -5 25 -3 12 13 -13 16
-12 17 3 5 9 -8 16 -19 14 -25 -1 -7 -1 -9 1 -4 3 4 9 5 13 2 5 -3 12 0 16 6
5 8 3 9 -6 4 -9 -6 -11 -4 -6 4 8 12 20 7 22 -10 1 -5 2 -12 3 -15 0 -3 14 4
30 16 19 13 32 17 36 10 4 -6 11 -7 17 -4 7 4 8 2 4 -5 -4 -6 -12 -8 -18 -5
-7 4 -8 2 -4 -4 5 -9 13 -9 27 -2 11 6 17 16 13 21 -4 7 2 7 15 0 12 -7 26 -9
31 -6 5 3 12 0 16 -6 5 -8 3 -9 -7 -4 -8 5 -10 4 -6 0 4 -5 15 -10 24 -11 12
-2 13 0 4 9 -16 16 -13 31 4 17 8 -7 20 -10 27 -7 22 8 33 7 33 -2 0 -5 4 -13
9 -18 5 -4 6 -3 2 4 -3 6 -2 14 4 18 5 3 10 -2 11 -12 1 -13 3 -11 9 7 5 17 8
19 9 8 1 -19 31 -25 31 -7 0 8 6 7 17 -2 15 -13 15 -12 3 11 -12 23 -12 24 4
11 15 -12 16 -12 9 5 -6 16 -4 17 8 7 13 -10 16 -10 16 2 0 8 -4 12 -8 9 -4
-2 -10 0 -14 6 -3 5 1 10 9 10 9 0 13 7 11 20 -2 11 0 22 6 25 5 4 9 18 9 32
0 19 4 24 16 19 14 -5 15 -4 4 9 -9 11 -9 15 -1 15 7 0 9 5 6 10 -4 6 -1 18 7
27 8 10 8 14 1 10 -6 -4 -15 -3 -18 3 -4 6 -3 10 2 9 23 -4 32 2 26 18 -4 9
-2 14 3 10 6 -3 11 3 11 14 1 11 -2 17 -8 14 -17 -11 -9 4 14 26 19 19 19 21
3 15 -15 -5 -17 -4 -8 7 7 8 8 18 4 23 -4 4 0 3 9 -4 14 -11 16 -9 11 14 -4
21 -2 25 9 19 8 -5 11 -5 7 0 -4 4 -3 14 4 22 8 11 7 12 -5 7 -12 -4 -14 -1
-10 17 4 13 8 18 11 11 2 -7 8 -9 13 -6 6 4 6 11 -1 19 -8 10 -8 15 1 21 8 5
9 3 4 -6 -5 -9 -4 -11 4 -6 9 6 9 11 -1 24 -9 11 -9 13 -1 9 9 -6 11 4 6 40
-5 46 -24 79 -37 65 -4 -3 -4 2 0 12 6 15 2 17 -32 15 -22 -2 -46 1 -53 5 -9
6 -17 3 -23 -7 -5 -10 -15 -14 -25 -10 -13 5 -15 2 -9 -13 6 -15 5 -16 -5 -7
-17 17 -42 -16 -27 -34 7 -9 6 -15 -6 -19 -9 -3 -13 -11 -9 -17 4 -6 0 -8 -11
-4 -12 5 -15 3 -9 -6 10 -16 4 -47 -13 -64 -8 -8 -12 -19 -8 -24 3 -5 0 -8 -8
-7 -7 2 -12 -4 -10 -12 2 -8 0 -12 -4 -8 -4 4 -14 2 -23 -4 -13 -10 -14 -10
-3 2 17 20 15 35 -3 20 -14 -11 -14 -10 -5 14 5 15 8 31 5 36 -3 5 -1 11 5 15
6 4 2 18 -12 38 -12 17 -17 27 -10 23 7 -4 12 -1 12 9 0 10 -5 13 -12 9 -7 -4
-8 -3 -4 4 4 6 13 9 21 5 8 -3 15 0 15 6 0 6 -6 10 -12 9 -7 -2 -11 4 -10 12
2 8 5 24 6 35 1 12 5 26 9 32 4 6 3 14 -3 18 -5 3 -8 19 -6 35 2 16 -1 27 -5
24 -5 -3 -6 2 -3 10 4 10 1 16 -7 16 -8 0 -5 6 7 15 10 8 15 15 9 15 -5 0 -3
5 5 11 13 9 12 10 -2 5 -10 -3 -20 -1 -23 4 -4 6 1 10 11 10 15 0 15 2 1 24
-15 23 -15 24 6 19 17 -4 19 -3 7 6 -8 5 -11 13 -8 17 4 4 2 16 -4 28 -18 33
-17 75 2 68 12 -5 11 -1 -4 22 -10 16 -13 25 -7 22 6 -4 11 -3 11 3 0 5 -5 13
-12 17 -7 5 -5 11 7 21 16 11 16 13 3 13 -17 0 -19 23 -3 37 4 4 5 3 1 -4 -3
-6 -2 -14 3 -17 5 -4 7 8 4 26 -3 18 -10 36 -16 40 -8 5 -7 8 3 8 12 0 13 2 1
9 -7 5 -11 13 -7 19 4 6 -2 8 -14 5 -16 -4 -19 -2 -13 12 4 13 3 16 -5 11 -7
-4 -12 -2 -12 6 0 10 -2 10 -9 -1 -7 -11 -9 -11 -13 0 -4 12 -8 11 -23 -1 -11
-8 -16 -10 -11 -3 5 9 2 11 -8 7 -9 -3 -13 -10 -10 -15 5 -8 -10 -13 -29 -10
-5 1 -6 -3 -2 -9 3 -6 12 -8 18 -4 7 3 5 0 -4 -8 -9 -7 -14 -19 -11 -27 3 -9
0 -11 -9 -6 -8 5 -7 0 3 -11 17 -19 17 -21 0 -38 -16 -18 -16 -19 1 -13 9 4
17 2 17 -3 0 -6 -5 -10 -11 -10 -5 0 -7 -4 -4 -10 3 -5 2 -10 -3 -10 -5 0 -9
-11 -9 -25 0 -13 3 -22 8 -19 5 3 9 1 9 -5 0 -5 -6 -11 -12 -14 -9 -3 -7 -10
7 -21 16 -13 17 -15 3 -10 -20 7 -25 -12 -5 -19 7 -3 5 -6 -5 -6 -10 -1 -18
-6 -18 -12 0 -5 4 -8 9 -5 5 3 14 -1 21 -9 11 -13 10 -14 -3 -10 -8 4 -18 1
-23 -6 -4 -7 -3 -10 4 -5 6 3 13 2 17 -4 3 -5 -1 -10 -9 -10 -9 0 -16 -5 -16
-11 0 -5 4 -8 9 -4 5 3 12 1 16 -5 3 -5 -1 -10 -11 -10 -13 0 -14 -3 -5 -14 9
-11 9 -16 0 -22 -9 -5 -7 -11 7 -22 18 -14 18 -14 -4 -9 -17 4 -21 2 -14 -6 5
-7 12 -20 15 -29 4 -13 2 -15 -10 -11 -12 5 -14 3 -7 -8 15 -24 13 -39 -7 -49
-15 -8 -19 -7 -19 5 0 8 -6 15 -12 15 -8 0 -9 3 -3 8 13 9 15 52 2 52 -6 0 -5
5 2 13 8 10 7 17 -2 27 -9 9 -9 11 0 6 8 -4 11 1 10 14 -1 11 -5 20 -10 20 -5
0 -4 6 2 13 6 8 8 16 6 19 -9 9 -14 48 -7 48 4 0 8 9 8 20 0 11 -7 20 -16 20
-13 0 -13 1 0 10 8 5 11 10 5 10 -5 0 -3 5 5 10 8 5 10 10 3 10 -6 0 -10 8 -8
18 1 9 -3 23 -9 31 -8 11 -8 13 1 8 6 -4 14 -3 18 3 3 5 1 10 -6 10 -7 0 -9 3
-6 7 4 3 2 12 -5 20 -8 10 -8 12 3 8 10 -4 15 1 15 15 0 14 -5 19 -15 15 -11
-4 -9 0 4 15 17 19 18 21 1 33 -16 12 -16 14 -2 26 12 10 13 16 3 32 -6 10
-17 19 -24 19 -7 0 -12 6 -10 13 1 6 -4 11 -12 9 -7 -1 -18 1 -25 6 -6 5 -17
7 -24 5z m23 -12 c3 -5 2 -12 -3 -15 -5 -3 -9 1 -9 9 0 17 3 19 12 6z m70 -51
c3 -5 2 -10 -4 -10 -5 0 -13 5 -16 10 -3 6 -2 10 4 10 5 0 13 -4 16 -10z
m-165 -187 c0 -13 -3 -13 -15 -3 -8 7 -15 16 -15 21 0 5 7 6 15 3 8 -4 15 -13
15 -21z m-15 -13 c3 -5 12 -7 20 -4 9 4 12 0 10 -13 -2 -10 -4 -22 -4 -26 -1
-5 -7 -5 -13 -2 -7 4 -3 -2 10 -13 13 -13 18 -22 10 -24 -14 -5 -20 -38 -7
-38 6 0 5 -8 -1 -20 -8 -15 -8 -20 1 -20 8 0 7 -5 -2 -17 -12 -15 -12 -16 1
-8 13 7 13 6 2 -7 -10 -13 -10 -17 0 -20 10 -4 10 -8 -1 -21 -11 -14 -11 -17
0 -17 10 0 10 -3 1 -12 -8 -8 -9 -15 -1 -25 9 -10 8 -13 -2 -13 -11 0 -11 -2
1 -10 12 -8 12 -10 1 -10 -8 0 -11 -3 -8 -6 3 -4 2 -16 -4 -27 -8 -14 -8 -18
0 -13 6 4 11 1 11 -7 0 -8 -12 -17 -26 -20 -17 -3 -24 -1 -20 8 2 7 -1 18 -7
24 -8 8 -8 11 2 11 8 0 11 6 7 16 -4 9 -1 23 5 30 6 8 8 14 3 14 -5 0 -10 20
-10 45 -1 29 2 43 9 38 6 -4 7 -1 2 7 -12 20 -13 64 -1 73 7 4 8 10 1 15 -5 4
-11 15 -11 24 -1 13 4 17 20 14 11 -2 15 -1 9 1 -7 3 -13 9 -13 14 0 6 -6 7
-12 3 -7 -4 -4 3 6 15 14 15 15 20 5 16 -10 -4 -15 1 -15 15 0 21 11 27 21 10z
m410 -319 c3 -5 2 -12 -3 -15 -5 -3 -9 1 -9 9 0 17 3 19 12 6z m7 -53 c-6 -6
-8 -16 -6 -23 3 -7 2 -15 -3 -18 -5 -3 -8 9 -7 26 2 40 2 39 15 31 7 -4 7 -10
1 -16z m-809 -123 c-7 -21 -12 -19 -10 4 0 11 5 18 9 15 4 -3 5 -11 1 -19z
m817 -49 c0 -3 -4 -8 -10 -11 -5 -3 -10 -1 -10 4 0 6 5 11 10 11 6 0 10 -2 10
-4z m-817 -191 c-7 -21 -12 -19 -10 4 0 11 5 18 9 15 4 -3 5 -11 1 -19z m424
-317 c-3 -8 -6 -5 -6 6 -1 11 2 17 5 13 3 -3 4 -12 1 -19z"/>
<path d="M2935 5571 c-3 -5 -2 -12 3 -15 5 -3 9 1 9 9 0 17 -3 19 -12 6z"/>
<path d="M4649 5278 c-6 -21 -5 -37 2 -32 5 3 7 9 4 14 -3 4 1 11 7 13 10 4
10 6 1 6 -7 1 -13 0 -14 -1z"/>
<path d="M6546 4988 c3 -4 9 -8 15 -8 5 0 9 4 9 8 0 5 -7 9 -15 9 -8 0 -12 -4
-9 -9z"/>
<path d="M5705 4841 c-3 -5 -2 -12 3 -15 5 -3 9 1 9 9 0 17 -3 19 -12 6z"/>
<path d="M6955 4800 c3 -5 8 -10 11 -10 2 0 4 5 4 10 0 6 -5 10 -11 10 -5 0
-7 -4 -4 -10z"/>
<path d="M1605 4741 c-3 -5 -2 -12 3 -15 5 -3 9 1 9 9 0 17 -3 19 -12 6z"/>
<path d="M6055 4721 c-3 -5 -2 -12 3 -15 5 -3 9 1 9 9 0 17 -3 19 -12 6z"/>
<path d="M6205 4714 c-10 -8 -14 -14 -8 -14 7 0 15 5 19 11 4 8 9 7 15 -2 6
-10 9 -10 9 -2 0 19 -14 22 -35 7z"/>
<path d="M6270 4715 c-14 -8 -20 -14 -14 -15 5 0 19 7 30 15 24 18 16 19 -16
0z"/>
<path d="M5720 4710 c-9 -6 -10 -10 -3 -10 6 0 15 5 18 10 8 12 4 12 -15 0z"/>
<path d="M7525 4679 c-4 -6 -5 -12 -2 -15 2 -3 7 2 10 11 7 17 1 20 -8 4z"/>
<path d="M7781 4674 c0 -11 3 -14 6 -6 3 7 2 16 -1 19 -3 4 -6 -2 -5 -13z"/>
<path d="M5637 4503 c3 -7 6 -13 8 -13 2 0 5 6 8 13 3 8 -1 14 -8 14 -7 0 -11
-6 -8 -14z"/>
<path d="M1706 4342 c-3 -5 1 -9 9 -9 8 0 12 4 9 9 -3 4 -7 8 -9 8 -2 0 -6 -4
-9 -8z"/>
<path d="M1945 4289 c-4 -6 -5 -12 -2 -15 2 -3 7 2 10 11 7 17 1 20 -8 4z"/>
<path d="M2425 4289 c-4 -6 -5 -12 -2 -15 2 -3 7 2 10 11 7 17 1 20 -8 4z"/>
<path d="M3065 4289 c-4 -6 -5 -12 -2 -15 2 -3 7 2 10 11 7 17 1 20 -8 4z"/>
<path d="M3915 4289 c-4 -6 -5 -12 -2 -15 2 -3 7 2 10 11 7 17 1 20 -8 4z"/>
<path d="M4025 4289 c-4 -6 -5 -12 -2 -15 2 -3 7 2 10 11 7 17 1 20 -8 4z"/>
<path d="M4505 4289 c-4 -6 -5 -12 -2 -15 2 -3 7 2 10 11 7 17 1 20 -8 4z"/>
<path d="M4680 4285 c-7 -9 -8 -15 -2 -15 5 0 12 7 16 15 3 8 4 15 2 15 -2 0
-9 -7 -16 -15z"/>
<path d="M2536 4278 c3 -5 10 -6 15 -3 13 9 11 12 -6 12 -8 0 -12 -4 -9 -9z"/>
<path d="M6515 4260 c-3 -5 -1 -10 4 -10 6 0 11 5 11 10 0 6 -2 10 -4 10 -3 0
-8 -4 -11 -10z"/>
<path d="M6995 4260 c-3 -5 -1 -10 4 -10 6 0 11 5 11 10 0 6 -2 10 -4 10 -3 0
-8 -4 -11 -10z"/>
<path d="M7475 4260 c-3 -5 -1 -10 4 -10 6 0 11 5 11 10 0 6 -2 10 -4 10 -3 0
-8 -4 -11 -10z"/>
<path d="M7715 4260 c-3 -5 -1 -10 4 -10 6 0 11 5 11 10 0 6 -2 10 -4 10 -3 0
-8 -4 -11 -10z"/>
<path d="M7875 4260 c-3 -5 -1 -10 4 -10 6 0 11 5 11 10 0 6 -2 10 -4 10 -3 0
-8 -4 -11 -10z"/>
<path d="M8035 4260 c-3 -5 -1 -10 4 -10 6 0 11 5 11 10 0 6 -2 10 -4 10 -3 0
-8 -4 -11 -10z"/>
<path d="M8195 4260 c-3 -5 -1 -10 4 -10 6 0 11 5 11 10 0 6 -2 10 -4 10 -3 0
-8 -4 -11 -10z"/>
<path d="M8355 4260 c-3 -5 -1 -10 4 -10 6 0 11 5 11 10 0 6 -2 10 -4 10 -3 0
-8 -4 -11 -10z"/>
<path d="M8515 4260 c-3 -5 -1 -10 4 -10 6 0 11 5 11 10 0 6 -2 10 -4 10 -3 0
-8 -4 -11 -10z"/>
<path d="M8675 4260 c-3 -5 -1 -10 4 -10 6 0 11 5 11 10 0 6 -2 10 -4 10 -3 0
-8 -4 -11 -10z"/>
<path d="M8835 4260 c-3 -5 -1 -10 4 -10 6 0 11 5 11 10 0 6 -2 10 -4 10 -3 0
-8 -4 -11 -10z"/>
<path d="M5656 3784 c-128 -46 -186 -144 -180 -305 4 -134 69 -231 174 -263
62 -20 201 -14 265 10 l50 20 3 52 c3 59 -2 62 -56 29 -165 -104 -330 -21
-336 168 -5 189 153 278 326 182 31 -17 59 -29 62 -27 4 5 9 63 7 88 -1 7 -22
22 -48 33 -61 27 -209 34 -267 13z"/>
<path d="M7520 3768 c-33 -16 -71 -44 -84 -61 -93 -123 -77 -357 30 -445 57
-47 108 -61 216 -57 118 3 188 30 189 73 0 15 2 37 3 50 3 29 -7 28 -87 -13
-58 -29 -76 -34 -125 -31 -35 2 -72 10 -91 22 -108 64 -128 262 -36 357 66 68
149 73 260 17 36 -18 67 -31 70 -29 10 11 11 80 1 94 -20 27 -99 48 -193 51
-86 2 -97 0 -153 -28z"/>
<path d="M418 3638 c-6 -308 14 -376 125 -422 45 -18 189 -17 227 3 104 55
117 117 111 524 l-1 47 -48 0 -49 0 1 -182 c2 -213 -4 -252 -44 -293 -27 -26
-37 -30 -90 -30 -53 0 -63 3 -89 30 -41 41 -47 79 -46 293 l1 182 -48 0 -47 0
-3 -152z"/>
<path d="M1030 3733 c-1 -32 -1 -161 -1 -288 l-1 -230 46 -3 46 -3 2 232 3
232 30 -59 c17 -33 57 -108 90 -169 33 -60 74 -137 91 -170 l31 -60 59 -3 60
-3 0 291 0 290 -46 0 -46 0 0 -210 c1 -115 -2 -206 -5 -202 -3 4 -28 48 -54
97 -47 88 -66 123 -136 253 l-34 62 -67 0 -68 0 0 -57z"/>
<path d="M1612 3755 c2 -33 4 -35 38 -35 l37 0 1 -220 2 -220 -39 0 c-36 0
-38 -1 -39 -35 l-1 -35 124 0 125 0 0 34 c0 33 -2 35 -37 38 l-37 3 0 215 -1
215 38 3 c35 3 37 5 37 38 l0 34 -125 0 -126 0 3 -35z"/>
<path d="M1920 3750 l0 -40 103 0 102 0 0 -247 0 -248 50 -3 50 -3 -2 251 -1
250 104 0 104 0 0 37 c0 36 4 31 76 -87 42 -69 88 -143 103 -164 24 -37 26
-46 26 -160 l0 -121 48 -3 c40 -3 47 0 48 15 0 10 0 65 0 123 l0 105 99 158
c55 87 100 162 100 168 0 5 -22 9 -49 9 l-49 0 -72 -115 c-39 -63 -75 -113
-79 -110 -5 2 -38 54 -75 115 l-68 110 -309 0 -309 0 0 -40z"/>
<path d="M3309 3728 c-1 -96 -1 -406 0 -465 l1 -53 45 0 45 0 2 219 3 220 65
-139 65 -139 35 0 35 -1 64 136 c36 74 67 137 70 139 4 2 5 -95 4 -216 l-1
-219 49 0 49 0 0 290 0 290 -63 0 -63 0 -70 -146 -69 -145 -16 33 c-9 18 -41
83 -71 143 l-55 110 -61 3 -62 3 -1 -63z"/>
<path d="M3997 3508 c1 -156 2 -286 2 -290 1 -5 90 -8 199 -8 l199 0 0 40 0
40 -151 0 -152 0 0 100 0 100 152 0 153 0 -1 40 0 40 -152 0 -152 0 0 70 1 70
152 0 152 0 -2 38 -2 37 -200 3 -200 2 2 -282z"/>
<path d="M4515 3500 l0 -292 145 5 c164 5 176 7 233 41 102 60 148 177 124
318 -9 52 -48 118 -90 152 -60 48 -125 63 -277 65 l-135 2 0 -291z m302 181
c23 -11 54 -37 70 -58 26 -33 28 -43 28 -124 0 -82 -2 -89 -31 -126 -43 -53
-93 -75 -189 -80 l-80 -5 0 212 0 212 80 -4 c55 -4 94 -12 122 -27z"/>
<path d="M5130 3755 c0 -34 1 -35 40 -35 l39 0 -1 -220 -1 -220 -39 0 c-37 0
-38 -1 -38 -35 l0 -35 125 0 125 0 0 35 c0 34 -1 35 -37 35 l-38 0 1 203 c1
111 2 210 3 220 1 13 10 17 36 17 33 0 35 2 35 35 l0 35 -125 0 -125 0 0 -35z"/>
<path d="M6211 3768 c-5 -13 -20 -54 -34 -93 -13 -38 -41 -115 -62 -170 -20
-55 -52 -142 -71 -193 -19 -51 -34 -95 -34 -98 0 -3 23 -4 52 -2 l51 3 23 70
c13 39 24 71 24 73 0 1 53 2 118 2 l117 0 25 -73 26 -72 52 -3 c29 -2 52 -1
52 1 0 5 -19 65 -27 87 -4 8 -45 121 -93 250 l-86 235 -62 3 c-57 3 -63 1 -71
-20z m79 -110 c0 -6 16 -55 37 -110 20 -54 34 -101 31 -104 -3 -2 -41 -4 -85
-2 l-79 3 39 113 c22 61 44 112 48 112 5 0 9 -5 9 -12z"/>
<path d="M6649 3758 c-1 -37 -1 -401 0 -490 l1 -58 190 0 190 0 0 40 0 40
-143 0 -142 0 0 248 0 247 -47 3 -48 3 -1 -33z"/>
<path d="M7979 3773 c0 -10 -1 -141 -2 -291 l-2 -272 200 2 200 3 2 38 2 37
-152 0 -152 0 0 100 -1 100 153 0 152 0 -1 40 0 40 -152 0 -152 0 0 70 1 70
151 0 151 0 1 40 2 40 -200 0 c-184 0 -200 -1 -201 -17z"/>
<path d="M8509 3733 c0 -74 0 -506 0 -515 1 -5 21 -8 46 -8 l45 0 2 231 3 230
97 -183 c54 -101 108 -203 122 -228 24 -45 24 -45 83 -48 l59 -3 0 291 0 290
-46 0 -46 0 0 -201 c1 -110 -2 -202 -5 -204 -3 -2 -16 17 -30 43 -13 26 -62
118 -108 205 l-85 157 -68 0 -68 0 -1 -57z"/>
<path d="M9040 3750 l0 -40 103 0 102 0 0 -247 0 -248 49 0 50 0 -1 248 -1
247 104 0 104 0 0 40 0 40 -255 0 -255 0 0 -40z"/>
<path d="M9629 3740 c0 -27 0 -144 0 -260 0 -115 0 -223 0 -240 l1 -30 200 0
200 0 0 40 0 40 -153 0 -152 0 0 100 -1 100 153 0 153 0 0 40 0 40 -153 0
-152 0 -1 70 0 70 152 0 152 0 0 40 1 40 -200 0 -199 0 -1 -50z"/>
<path d="M10147 3528 c1 -145 2 -276 2 -291 1 -27 3 -28 48 -25 l48 3 0 110 0
110 45 2 45 2 94 -114 93 -115 59 0 c33 0 59 3 59 8 0 4 -41 54 -91 112 -118
138 -116 134 -75 159 83 52 96 201 22 255 -49 37 -84 44 -222 45 l-129 2 2
-263z m248 169 c34 -17 46 -35 47 -69 2 -69 -42 -104 -137 -107 l-60 -2 0 96
0 96 65 -2 c36 -1 74 -6 85 -12z"/>
<path d="M2845 2718 c5 -19 3 -28 -5 -28 -6 0 -9 4 -5 9 3 5 2 12 -3 15 -4 2
-8 -6 -8 -19 0 -13 4 -21 8 -19 4 3 8 0 8 -6 0 -6 4 -9 9 -5 5 3 12 -4 16 -15
4 -11 11 -18 16 -15 5 4 9 1 9 -5 0 -6 5 -8 12 -4 8 5 9 2 5 -9 -3 -9 -1 -19
5 -23 7 -4 8 -3 4 4 -4 7 -4 12 -1 12 11 0 35 -28 35 -40 0 -6 5 -8 10 -5 6 3
10 2 10 -4 0 -17 32 -42 47 -37 8 3 11 1 8 -4 -3 -6 2 -10 12 -10 14 0 15 -2
4 -9 -11 -7 -9 -10 10 -13 13 -2 23 -9 22 -16 -2 -6 3 -11 10 -9 6 1 11 -4 9
-11 -1 -8 2 -11 8 -7 5 3 10 1 10 -4 0 -6 10 -11 23 -11 18 0 19 -2 7 -10 -12
-8 -11 -10 8 -10 12 0 22 -4 22 -9 0 -5 11 -12 25 -15 17 -4 23 -11 18 -23 -4
-11 -3 -14 5 -9 7 4 12 2 12 -4 0 -6 5 -8 10 -5 6 3 10 1 10 -4 0 -6 7 -11 16
-11 8 0 13 -4 9 -9 -3 -6 4 -8 16 -6 17 4 19 2 8 -11 -10 -12 -9 -13 6 -8 13
5 16 4 11 -4 -5 -8 -2 -10 8 -6 9 3 16 1 16 -5 0 -6 7 -11 15 -11 9 0 15 -9
16 -22 0 -22 1 -22 9 -3 l9 20 0 -20 c1 -14 4 -16 9 -8 6 9 12 7 22 -7 10 -15
17 -17 27 -8 10 8 12 7 7 -5 -3 -10 2 -20 16 -27 11 -6 17 -16 14 -22 -4 -7
-3 -8 5 -4 6 4 9 12 6 17 -4 5 -1 9 4 9 6 0 11 -5 11 -11 0 -5 5 -7 10 -4 6 4
10 3 9 -2 -3 -20 2 -34 11 -28 6 3 10 1 10 -6 0 -8 4 -8 15 1 8 7 15 8 15 3 0
-5 7 -18 16 -29 14 -17 15 -17 10 -1 -5 17 -5 17 19 0 13 -10 25 -25 25 -33 1
-10 3 -11 7 -2 3 9 9 7 21 -6 10 -10 13 -12 8 -5 -12 18 -3 16 22 -6 12 -10
18 -22 14 -27 -4 -4 1 -2 11 5 15 12 17 11 17 -5 0 -16 2 -17 10 -4 8 12 10
12 10 -5 0 -17 2 -17 10 -5 8 13 10 12 10 -3 0 -10 5 -15 11 -12 6 4 17 -1 25
-11 9 -11 13 -14 10 -8 -3 6 1 11 8 11 8 0 12 -6 9 -14 -3 -9 3 -13 22 -13 18
0 24 -4 19 -12 -5 -8 0 -7 11 2 10 8 16 10 13 5 -4 -6 2 -17 14 -24 11 -7 18
-9 15 -4 -3 5 3 9 13 9 14 0 16 -3 8 -13 -8 -11 -7 -12 7 -7 14 6 16 4 10 -6
-6 -10 -4 -12 8 -7 10 4 17 1 17 -6 0 -9 3 -8 9 1 6 10 10 8 14 -9 5 -20 8
-21 23 -8 16 13 17 12 10 -6 -5 -15 -4 -17 5 -8 9 9 15 8 26 -3 12 -11 18 -12
29 -3 12 9 13 9 8 -4 -4 -12 -1 -14 14 -10 11 2 23 0 26 -6 5 -7 1 -8 -11 -4
-10 3 -15 3 -12 -1 4 -4 16 -9 28 -11 15 -3 19 0 14 8 -5 9 -3 9 9 0 8 -7 19
-9 23 -5 5 4 5 1 1 -5 -4 -7 -2 -13 4 -13 6 0 8 -4 5 -10 -3 -5 -1 -10 5 -10
7 0 9 7 6 16 -4 10 -2 14 6 11 7 -2 12 -10 10 -17 -2 -11 0 -11 12 -1 11 9 16
9 22 0 5 -8 3 -9 -6 -4 -8 5 -11 4 -7 -2 4 -6 22 -10 41 -9 25 1 32 -2 28 -13
-4 -10 1 -12 18 -6 17 6 21 4 14 -6 -6 -10 -3 -10 11 1 10 8 16 10 12 3 -4 -6
-3 -14 3 -18 5 -3 10 -1 10 5 0 6 10 2 21 -9 17 -16 26 -18 42 -10 14 8 18 8
12 -1 -5 -8 3 -11 28 -9 20 2 40 -1 44 -5 4 -5 3 -6 -4 -2 -6 3 -14 2 -17 -3
-7 -11 13 -9 33 3 10 6 12 5 7 -2 -9 -15 7 -15 21 -1 9 9 11 7 7 -8 -3 -12 -1
-24 5 -27 6 -4 9 -1 5 7 -7 19 35 15 47 -4 5 -9 9 -10 9 -2 0 17 39 7 57 -14
12 -14 14 -15 10 -2 -3 9 1 16 9 16 8 0 13 -6 10 -13 -3 -8 0 -16 6 -20 7 -4
8 -3 4 4 -4 7 -3 12 3 12 5 0 13 -5 16 -10 4 -7 12 -7 25 0 26 14 30 13 30 -7
0 -15 2 -16 10 -3 9 14 14 7 11 -13 -1 -5 3 -6 9 -2 6 3 8 10 5 15 -3 5 0 12
6 16 8 4 9 3 5 -4 -5 -8 3 -11 24 -8 l31 3 -17 -26 -17 -26 28 25 c16 14 25
19 21 13 -8 -14 -1 -16 57 -13 25 1 37 -3 37 -12 1 -8 6 -6 15 6 8 11 15 14
15 7 0 -7 5 -9 13 -5 9 6 9 4 -1 -8 -10 -13 -10 -18 -1 -24 7 -4 9 -3 6 3 -4
6 1 14 11 19 31 14 51 12 57 -7 8 -24 31 -24 45 -1 11 16 11 16 6 0 -3 -12 0
-18 10 -18 9 0 12 5 8 13 -6 9 -4 9 7 0 10 -10 83 -13 292 -13 220 0 277 3
271 13 -6 10 -4 10 7 0 19 -18 46 -16 59 5 9 14 11 14 7 1 -4 -12 1 -16 19
-16 13 0 24 4 24 9 0 5 -4 6 -10 3 -5 -3 -10 -2 -10 3 0 6 7 13 16 16 8 3 12
2 9 -4 -3 -5 4 -8 15 -7 11 1 20 4 20 8 0 10 54 6 58 -4 5 -17 1 -19 -15 -6
-16 13 -17 12 -4 -4 10 -13 17 -15 27 -6 8 6 11 16 8 21 -4 6 2 8 12 6 11 -2
18 -10 16 -18 -3 -11 0 -11 12 0 18 14 22 25 6 15 -5 -3 -10 -1 -10 4 0 13 10
14 29 2 10 -7 19 -4 29 7 7 9 11 11 7 5 -3 -7 -1 -13 5 -13 6 0 8 -5 4 -12 -4
-6 -3 -8 4 -4 6 3 9 15 7 26 -3 13 1 17 11 13 7 -3 12 -8 10 -12 -3 -4 8 -7
24 -6 15 0 26 4 23 8 -3 5 -11 6 -19 3 -8 -3 -11 0 -8 9 5 12 10 11 32 -3 19
-12 24 -13 18 -3 -7 11 -4 13 12 9 12 -4 25 -2 28 4 4 6 10 5 15 -3 7 -11 9
-10 9 4 0 14 4 16 19 7 15 -8 24 -6 37 8 10 9 22 18 28 18 6 1 13 3 16 4 16 6
48 5 44 -1 -2 -4 6 -5 18 -2 13 3 34 5 47 5 17 0 20 2 10 8 -7 5 -10 12 -6 16
3 4 13 1 21 -5 11 -9 16 -9 22 0 5 8 3 10 -7 4 -11 -6 -11 -5 -3 4 9 10 17 10
34 1 17 -9 21 -9 15 0 -5 9 -1 10 16 5 24 -7 24 -7 4 9 -19 15 -19 16 9 6 25
-9 27 -8 22 6 -5 14 -4 15 9 4 10 -8 15 -9 15 -2 0 7 7 9 17 5 11 -4 14 -3 9
5 -4 7 -1 12 9 12 9 0 13 -5 10 -11 -4 -6 2 -5 13 2 12 7 19 17 16 21 -3 4 2
5 11 2 8 -4 23 0 32 7 13 11 17 11 21 1 2 -8 15 -1 34 20 16 18 27 28 24 21
-4 -6 -2 -14 4 -18 5 -3 10 -1 10 6 0 7 3 9 7 6 3 -4 13 -1 21 6 13 10 14 9 8
-1 -7 -11 -4 -12 13 -3 11 7 21 14 21 17 0 3 -4 2 -10 -1 -6 -3 -10 -1 -10 4
0 15 13 14 29 -1 11 -10 13 -10 7 0 -5 8 0 12 13 13 34 2 39 4 48 13 5 5 2 6
-6 1 -10 -5 -12 -4 -7 3 5 9 13 9 26 2 16 -8 18 -8 14 5 -4 10 0 15 11 15 9 0
13 -5 10 -11 -4 -6 2 -5 13 2 12 7 18 17 16 21 -5 7 27 13 49 9 5 -1 5 4 1 10
-5 9 -2 10 9 6 9 -3 19 -1 23 5 5 7 2 8 -6 3 -9 -6 -11 -4 -5 4 4 7 16 11 26
8 11 -3 17 -2 15 1 -2 4 8 16 23 27 19 14 22 14 13 3 -12 -15 -11 -17 6 -15
12 0 18 6 15 14 -3 8 3 13 16 13 12 0 21 6 21 13 0 8 4 7 10 -3 8 -13 10 -12
10 4 0 12 5 16 16 12 8 -3 12 -2 9 4 -6 9 16 15 39 11 5 -1 3 6 -5 15 -9 12
-9 15 -1 10 7 -4 12 -2 12 6 0 10 3 9 11 -2 8 -11 12 -12 16 -2 2 6 9 10 14 6
5 -3 9 -1 9 5 0 5 -6 11 -12 14 -7 3 -3 4 9 4 12 -1 19 -6 17 -12 -3 -5 1 -2
9 7 8 10 17 15 20 11 7 -6 11 12 8 30 -1 5 3 6 8 2 13 -7 62 5 57 14 -3 4 4
13 16 20 11 7 17 8 14 3 -4 -6 3 -8 15 -5 14 4 17 8 9 13 -9 5 -9 9 -1 14 6 4
11 5 11 1 0 -3 9 -1 20 5 11 6 18 15 15 20 -3 6 1 7 9 4 9 -3 16 -1 16 6 0 6
4 9 9 6 5 -3 12 1 15 10 4 9 13 14 21 10 8 -3 14 0 12 7 -1 7 6 11 16 10 14
-1 18 4 14 19 -4 16 -3 17 9 7 11 -9 14 -8 14 7 0 15 2 16 9 5 6 -9 11 -10 15
-2 4 6 12 8 18 5 7 -4 8 -2 4 5 -4 6 -13 8 -19 5 -7 -4 -8 -3 -4 2 4 4 22 13
40 19 17 5 37 21 44 35 7 14 13 19 13 12 0 -7 5 -10 10 -7 6 4 7 11 4 17 -5 8
-1 9 10 5 9 -4 15 -3 12 2 -3 4 4 17 17 27 21 19 21 19 7 0 -15 -19 -15 -19
15 -1 38 24 44 30 23 22 -10 -3 -20 -2 -23 4 -4 5 -3 9 2 8 4 -1 11 0 16 1 4
1 10 3 15 4 26 6 53 29 48 42 -3 9 -1 12 4 9 6 -4 25 8 43 26 17 18 26 29 18
24 -10 -5 -12 -4 -7 4 6 9 11 9 21 1 15 -13 30 3 20 20 -4 6 -1 9 7 8 7 -2 12
3 11 9 -2 7 0 12 5 12 4 -1 14 -1 22 0 13 1 13 2 0 11 -8 5 -10 10 -5 11 29 2
49 9 59 19 6 6 7 11 1 10 -20 -4 -30 1 -17 8 9 6 5 12 -13 20 -20 9 -25 9 -19
0 5 -7 2 -9 -9 -5 -8 3 -21 -1 -28 -9 -9 -11 -15 -12 -25 -3 -8 6 -14 8 -14 5
0 -4 -9 -2 -19 4 -16 8 -20 6 -24 -8 -4 -15 -5 -14 -6 2 -1 20 -1 20 -17 0 -8
-10 -13 -13 -9 -6 4 8 -1 12 -15 12 -13 0 -19 4 -14 12 4 7 3 8 -4 4 -7 -4
-12 -15 -13 -24 0 -12 -3 -11 -9 6 -5 12 -12 22 -14 22 -3 0 -3 -6 0 -14 3 -8
0 -17 -7 -22 -8 -4 -10 -3 -5 4 4 7 2 12 -4 12 -6 0 -8 6 -4 13 4 7 3 9 -2 4
-5 -5 -9 -13 -9 -18 0 -10 -4 -10 -35 -2 -11 3 -17 10 -13 16 3 6 1 7 -5 3 -7
-4 -12 -14 -12 -22 0 -8 -4 -14 -9 -14 -6 0 -8 10 -6 21 4 20 3 21 -15 4 -14
-13 -23 -14 -39 -6 -24 13 -32 14 -28 2 2 -10 -5 -11 -33 -4 -11 3 -17 10 -13
16 3 6 1 7 -5 3 -7 -4 -12 -14 -12 -22 0 -8 -4 -14 -9 -14 -6 0 -8 10 -6 21 4
21 3 21 -15 4 -10 -9 -24 -14 -31 -10 -21 14 -54 11 -61 -5 -5 -12 -7 -11 -7
4 -1 20 -1 20 -17 0 -8 -10 -13 -13 -9 -6 4 8 -1 12 -15 12 -13 0 -19 4 -14
12 4 7 3 8 -4 4 -7 -4 -12 -15 -12 -24 0 -14 -2 -15 -9 -2 -6 8 -8 17 -6 20 2
4 -2 7 -10 7 -11 0 -12 -4 -3 -14 9 -11 7 -12 -7 -7 -14 6 -16 4 -10 -6 5 -9
4 -11 -3 -6 -7 4 -12 15 -13 24 -1 11 -4 8 -9 -8 -5 -16 -8 -19 -9 -8 -1 22
-17 32 -27 17 -4 -8 -3 -9 4 -5 7 4 12 2 12 -3 0 -16 -20 -13 -26 4 -4 8 -10
12 -16 9 -5 -3 -5 -11 2 -19 8 -10 8 -13 -2 -10 -41 10 -57 18 -51 28 3 6 1 7
-5 3 -7 -4 -12 -15 -13 -24 0 -12 -3 -11 -9 6 -5 12 -12 22 -14 22 -3 0 -3 -6
0 -14 3 -8 0 -17 -7 -22 -8 -4 -10 -3 -5 4 4 7 1 12 -9 12 -10 0 -13 -5 -9
-12 4 -7 3 -8 -5 -4 -8 6 -9 12 -2 20 8 9 7 13 -4 13 -8 0 -15 -6 -15 -14 0
-17 -20 -17 -21 0 0 6 -4 3 -9 -8 -7 -16 -9 -17 -9 -3 -1 22 -17 32 -27 17 -4
-8 -3 -9 4 -5 7 4 12 2 12 -3 0 -17 -18 -13 -29 7 -7 11 -10 12 -11 3 0 -7 -6
-11 -14 -8 -9 4 -17 -1 -19 -11 -4 -14 -5 -14 -6 2 -1 20 -1 20 -17 0 -8 -10
-13 -13 -9 -6 4 8 -1 12 -15 12 -13 0 -19 4 -14 12 4 7 3 8 -4 4 -7 -4 -12
-15 -13 -24 0 -12 -3 -11 -9 6 -5 12 -12 22 -14 22 -3 0 -3 -6 0 -14 3 -8 0
-17 -7 -22 -7 -4 -10 -3 -6 3 4 6 -4 13 -18 15 -16 4 -25 0 -28 -11 -4 -12 -5
-11 -6 3 -1 20 -1 20 -17 0 -8 -10 -13 -13 -9 -6 4 8 -1 12 -15 12 -13 0 -19
4 -14 12 4 7 3 8 -4 4 -7 -4 -12 -15 -12 -24 0 -14 -2 -15 -9 -2 -6 8 -8 17
-6 20 2 4 -2 7 -10 7 -11 0 -12 -4 -3 -14 9 -11 7 -12 -7 -7 -14 6 -16 4 -10
-6 5 -9 4 -11 -3 -6 -7 4 -12 15 -13 24 -1 11 -4 8 -9 -8 -5 -16 -8 -19 -9 -8
-1 22 -17 32 -27 17 -4 -8 -3 -9 4 -5 7 4 12 2 12 -3 0 -16 -20 -13 -26 4 -4
8 -10 12 -16 9 -5 -3 -5 -11 2 -19 8 -10 8 -13 -2 -10 -41 10 -57 18 -51 28 3
6 1 7 -5 3 -7 -4 -12 -15 -13 -24 0 -12 -3 -11 -9 6 -5 12 -12 22 -14 22 -3 0
-3 -6 0 -14 3 -8 0 -17 -7 -22 -8 -4 -10 -3 -5 4 4 7 1 12 -9 12 -10 0 -13 -5
-9 -12 4 -7 3 -8 -5 -4 -8 6 -9 12 -2 20 8 9 7 13 -4 13 -8 0 -15 -6 -15 -14
0 -17 -20 -17 -21 0 0 6 -4 3 -9 -8 -7 -16 -9 -17 -9 -3 -1 22 -17 32 -27 17
-4 -8 -3 -9 4 -5 7 4 12 2 12 -3 0 -17 -18 -13 -29 7 -7 11 -10 12 -11 3 0 -7
-6 -11 -14 -8 -9 4 -17 -1 -19 -11 -4 -14 -5 -14 -6 2 -1 20 -1 20 -17 0 -8
-10 -13 -13 -9 -6 4 8 -1 12 -15 12 -13 0 -19 4 -14 12 4 7 3 8 -4 4 -7 -4
-12 -15 -13 -24 0 -12 -3 -11 -9 6 -5 12 -12 22 -14 22 -3 0 -3 -6 0 -14 3 -8
0 -17 -7 -22 -7 -4 -10 -3 -6 3 4 6 -4 13 -18 15 -16 4 -25 0 -28 -11 -4 -12
-5 -11 -6 3 -1 20 -1 20 -17 0 -8 -10 -13 -13 -9 -6 4 8 -1 12 -15 12 -13 0
-19 4 -14 12 4 7 3 8 -4 4 -7 -4 -12 -15 -12 -24 0 -14 -2 -15 -9 -2 -6 8 -8
17 -6 20 2 4 -2 7 -10 7 -11 0 -12 -4 -3 -14 9 -11 7 -12 -7 -7 -14 6 -16 4
-10 -6 5 -9 4 -11 -3 -6 -7 4 -12 15 -13 24 -1 11 -4 8 -9 -8 -5 -16 -8 -19
-9 -8 -1 22 -17 32 -27 17 -4 -8 -3 -9 4 -5 7 4 12 2 12 -3 0 -16 -20 -13 -26
4 -4 8 -10 12 -16 9 -5 -3 -5 -11 2 -19 8 -10 8 -13 -2 -10 -41 10 -57 18 -51
28 3 6 1 7 -5 3 -7 -4 -12 -15 -13 -24 0 -12 -3 -11 -9 6 -5 12 -12 22 -14 22
-3 0 -3 -6 0 -14 3 -8 0 -17 -7 -22 -8 -4 -10 -3 -5 4 4 7 1 12 -9 12 -10 0
-13 -5 -9 -12 4 -7 3 -8 -5 -4 -8 6 -9 12 -2 20 8 9 7 13 -4 13 -8 0 -15 -6
-15 -14 0 -17 -20 -17 -21 0 0 6 -4 3 -9 -8 -7 -16 -9 -17 -9 -3 -1 22 -17 32
-27 17 -4 -8 -3 -9 4 -5 7 4 12 2 12 -3 0 -17 -18 -13 -29 7 -7 11 -10 12 -11
3 0 -7 -6 -11 -14 -8 -9 4 -17 -1 -19 -11 -4 -14 -5 -14 -6 2 -1 20 -1 20 -17
0 -8 -10 -13 -13 -9 -6 4 8 -1 12 -15 12 -13 0 -19 4 -14 12 4 7 3 8 -4 4 -7
-4 -12 -15 -13 -24 0 -12 -3 -11 -9 6 -5 12 -12 22 -14 22 -3 0 -3 -6 0 -14 3
-8 0 -17 -7 -22 -7 -4 -10 -3 -6 3 4 6 -4 13 -18 15 -16 4 -25 0 -28 -11 -4
-12 -5 -11 -6 3 -1 20 -1 20 -17 0 -8 -10 -13 -13 -9 -6 4 8 -1 12 -15 12 -13
0 -19 4 -14 12 4 7 3 8 -4 4 -7 -4 -12 -15 -12 -24 0 -14 -2 -15 -9 -2 -6 8
-8 17 -6 20 2 4 -2 7 -10 7 -11 0 -12 -4 -3 -14 9 -11 7 -12 -7 -7 -14 6 -16
4 -10 -6 5 -9 4 -11 -3 -6 -7 4 -12 15 -13 24 -1 11 -4 8 -9 -8 -5 -16 -8 -19
-9 -8 -1 22 -17 32 -27 17 -4 -8 -3 -9 4 -5 7 4 12 2 12 -3 0 -16 -20 -13 -26
4 -4 8 -10 12 -16 9 -5 -3 -5 -11 2 -19 8 -10 8 -13 -2 -10 -41 10 -57 18 -51
28 3 6 1 7 -5 3 -7 -4 -12 -15 -13 -24 0 -12 -3 -11 -9 6 -5 12 -12 22 -14 22
-3 0 -3 -6 0 -14 3 -8 0 -17 -7 -22 -8 -4 -10 -3 -5 4 4 7 1 12 -9 12 -10 0
-13 -5 -9 -12 4 -7 3 -8 -5 -4 -8 6 -9 12 -2 20 8 9 7 13 -4 13 -8 0 -15 -6
-15 -14 0 -17 -20 -17 -21 0 0 6 -4 3 -9 -8 -7 -16 -9 -17 -9 -3 -1 22 -17 32
-27 17 -4 -8 -3 -9 4 -5 7 4 12 2 12 -3 0 -17 -18 -13 -29 7 -7 11 -10 12 -11
3 0 -7 -6 -11 -14 -8 -9 4 -17 -1 -19 -11 -4 -14 -5 -14 -6 2 -1 20 -1 20 -17
0 -8 -10 -13 -13 -9 -6 4 8 -1 12 -15 12 -13 0 -19 4 -14 12 4 7 3 8 -4 4 -7
-4 -12 -15 -13 -24 0 -12 -3 -11 -9 6 -5 12 -12 22 -14 22 -3 0 -3 -6 0 -14 3
-8 0 -17 -7 -22 -8 -4 -10 -3 -5 4 4 7 2 12 -4 12 -6 0 -8 6 -4 13 4 7 3 9 -2
4 -5 -5 -9 -13 -9 -18 0 -10 -2 -11 -32 -3 -13 4 -20 11 -16 17 3 6 1 7 -5 3
-7 -4 -12 -14 -12 -22 0 -8 -4 -14 -9 -14 -6 0 -8 10 -6 21 4 20 3 21 -15 4
-14 -13 -23 -14 -39 -6 -23 13 -32 14 -29 4 4 -10 -11 -11 -34 -5 -10 2 -15 9
-11 15 3 6 1 7 -5 3 -7 -4 -12 -14 -12 -22 0 -8 -4 -14 -9 -14 -6 0 -8 10 -6
21 4 21 3 21 -15 4 -10 -9 -24 -14 -31 -10 -21 14 -54 11 -61 -5 -5 -12 -7
-11 -7 4 -1 20 -1 20 -17 0 -8 -10 -13 -13 -9 -6 4 8 -1 12 -15 12 -13 0 -19
4 -14 12 4 7 3 8 -4 4 -7 -4 -12 -15 -12 -24 0 -14 -2 -15 -9 -2 -6 8 -8 17
-6 20 2 4 -2 7 -10 7 -11 0 -12 -4 -3 -14 9 -11 7 -12 -7 -7 -14 6 -16 4 -10
-6 5 -9 4 -11 -3 -6 -7 4 -12 15 -13 24 -1 11 -4 8 -9 -8 -5 -16 -8 -19 -9 -8
-1 22 -17 32 -27 17 -4 -8 -3 -9 4 -5 7 4 12 2 12 -3 0 -16 -20 -13 -26 4 -4
8 -10 12 -16 9 -5 -3 -5 -11 2 -19 8 -10 8 -13 -2 -10 -41 10 -57 18 -51 28 3
6 1 7 -5 3 -7 -4 -12 -15 -13 -24 0 -12 -3 -11 -9 6 -5 12 -12 22 -14 22 -3 0
-3 -6 0 -14 3 -8 0 -17 -7 -22 -8 -4 -10 -3 -5 4 4 7 1 12 -9 12 -10 0 -13 -5
-9 -12 4 -7 3 -8 -5 -4 -8 6 -9 12 -2 20 8 9 7 13 -4 13 -8 0 -15 -6 -15 -14
0 -17 -20 -17 -21 0 0 6 -4 3 -9 -8 -7 -16 -9 -17 -9 -3 -1 22 -17 32 -27 17
-4 -8 -3 -9 4 -5 7 4 12 2 12 -3 0 -17 -18 -13 -29 7 -7 11 -10 12 -11 3 0 -7
-6 -11 -14 -8 -9 4 -17 -1 -19 -11 -4 -14 -5 -14 -6 2 -1 20 -1 20 -17 0 -8
-10 -13 -13 -9 -6 4 8 -1 12 -15 12 -13 0 -19 4 -14 12 4 7 3 8 -4 4 -7 -4
-12 -15 -13 -24 0 -12 -3 -11 -9 6 -5 12 -12 22 -14 22 -3 0 -3 -6 0 -14 3 -8
0 -17 -7 -22 -8 -4 -10 -3 -5 4 4 7 2 12 -4 12 -6 0 -8 6 -4 13 4 7 3 9 -2 4
-5 -5 -9 -13 -9 -18 0 -5 -4 -8 -10 -7 -32 5 -44 11 -38 21 3 6 1 7 -5 3 -7
-4 -12 -14 -12 -22 0 -8 -4 -14 -9 -14 -6 0 -8 10 -6 21 4 20 3 21 -15 4 -14
-13 -23 -14 -39 -6 -23 13 -32 14 -28 4 3 -11 -5 -13 -30 -7 -13 4 -20 11 -16
17 3 6 1 7 -5 3 -7 -4 -12 -14 -12 -22 0 -8 -4 -14 -9 -14 -6 0 -8 10 -6 21 4
20 3 21 -15 4 -14 -13 -23 -14 -39 -5 -16 8 -21 8 -22 -2 0 -7 -4 -4 -9 7 -8
18 -9 18 -10 -5 l-1 -25 -10 23 c-7 19 -29 23 -29 6 0 -3 5 -2 10 1 6 3 10 1
10 -4 0 -16 -20 -13 -26 4 -4 8 -10 12 -16 9 -5 -3 -5 -11 2 -19 8 -10 8 -13
-2 -10 -41 10 -57 18 -51 28 3 6 1 7 -5 3 -7 -4 -12 -14 -12 -22 0 -8 -5 -12
-10 -9 -6 4 -8 10 -5 15 3 5 0 12 -6 16 -8 4 -9 3 -5 -4 8 -13 -16 -17 -28 -5
-10 11 -37 12 -30 2 3 -5 10 -6 16 -3 7 5 8 2 3 -6 -6 -9 -4 -11 5 -5 9 5 11
4 6 -4 -6 -9 -11 -9 -22 0 -8 6 -14 8 -15 3 0 -5 -4 0 -9 11 -8 18 -9 18 -10
-5 l-2 -25 -8 25 c-5 17 -8 19 -9 8 -1 -20 -16 -24 -27 -6 -5 7 -3 8 6 3 9 -5
11 -4 6 4 -10 16 -29 3 -22 -16 3 -8 1 -11 -4 -8 -6 3 -10 14 -11 23 -1 11 -4
8 -9 -8 -5 -16 -8 -19 -9 -8 -1 22 -17 32 -27 17 -4 -8 -3 -9 4 -5 7 4 12 2
12 -3 0 -16 -20 -13 -26 4 -4 8 -10 12 -16 9 -5 -3 -5 -11 2 -19 8 -10 8 -13
-2 -10 -41 10 -57 18 -51 28 3 6 1 7 -5 3 -7 -4 -12 -14 -12 -22 0 -8 -5 -12
-10 -9 -6 4 -8 10 -5 15 3 5 0 12 -6 16 -8 4 -9 3 -5 -4 8 -13 -16 -17 -28 -5
-17 17 -47 12 -56 -10 -9 -22 -9 -22 -11 3 -1 17 -3 20 -6 8 -5 -20 -18 -23
-28 -8 -3 6 -11 10 -17 10 -7 0 -6 -5 1 -14 10 -11 9 -14 -1 -11 -41 10 -57
18 -51 28 3 6 1 7 -5 3 -7 -4 -12 -14 -12 -22 0 -8 -4 -14 -9 -14 -6 0 -8 10
-6 21 4 20 3 21 -15 4 -14 -13 -23 -14 -39 -6 -23 13 -32 14 -28 4 3 -10 -12
-11 -35 -5 -10 2 -15 9 -11 15 3 6 1 7 -5 3 -7 -4 -12 -14 -12 -22 0 -8 -4
-14 -9 -14 -6 0 -8 10 -6 23 4 21 3 21 -10 4 -13 -18 -13 -18 -18 0 -4 17 -5
17 -6 0 -1 -14 -5 -16 -20 -8 -10 6 -22 7 -26 3 -3 -4 -13 2 -21 13 -15 19
-15 19 -9 -7z m473 -7 c2 -1 0 -6 -3 -11 -5 -8 -11 -8 -19 -1 -7 6 -16 8 -19
4 -4 -3 -7 -1 -7 5 0 10 16 11 48 3z m4949 -23 c2 -18 0 -20 -7 -8 -12 18 -13
30 -2 30 4 0 9 -10 9 -22z m-5257 -148 c0 -5 -2 -10 -4 -10 -3 0 -8 5 -11 10
-3 6 -1 10 4 10 6 0 11 -4 11 -10z m5080 -24 c0 -2 -7 -7 -16 -10 -8 -3 -12
-2 -9 4 6 10 25 14 25 6z m-170 -131 c0 -2 -10 -9 -22 -15 -22 -11 -22 -10 -4
4 21 17 26 19 26 11z m-3455 -625 c3 -5 1 -10 -4 -10 -6 0 -11 5 -11 10 0 6 2
10 4 10 3 0 8 -4 11 -10z"/>
<path d="M3010 2721 c0 -6 4 -13 10 -16 6 -3 7 1 4 9 -7 18 -14 21 -14 7z"/>
<path d="M3170 2721 c0 -6 4 -13 10 -16 6 -3 7 1 4 9 -7 18 -14 21 -14 7z"/>
<path d="M3410 2721 c0 -6 4 -13 10 -16 6 -3 7 1 4 9 -7 18 -14 21 -14 7z"/>
<path d="M3730 2721 c0 -6 4 -13 10 -16 6 -3 7 1 4 9 -7 18 -14 21 -14 7z"/>
<path d="M3970 2721 c0 -6 4 -13 10 -16 6 -3 7 1 4 9 -7 18 -14 21 -14 7z"/>
<path d="M4130 2721 c0 -6 4 -13 10 -16 6 -3 7 1 4 9 -7 18 -14 21 -14 7z"/>
<path d="M4530 2721 c0 -6 4 -13 10 -16 6 -3 7 1 4 9 -7 18 -14 21 -14 7z"/>
<path d="M4930 2721 c0 -6 4 -13 10 -16 6 -3 7 1 4 9 -7 18 -14 21 -14 7z"/>
<path d="M5090 2721 c0 -6 4 -13 10 -16 6 -3 7 1 4 9 -7 18 -14 21 -14 7z"/>
<path d="M5490 2721 c0 -6 4 -13 10 -16 6 -3 7 1 4 9 -7 18 -14 21 -14 7z"/>
<path d="M6130 2721 c0 -6 4 -13 10 -16 6 -3 7 1 4 9 -7 18 -14 21 -14 7z"/>
<path d="M6770 2721 c0 -6 4 -13 10 -16 6 -3 7 1 4 9 -7 18 -14 21 -14 7z"/>
<path d="M7410 2721 c0 -6 4 -13 10 -16 6 -3 7 1 4 9 -7 18 -14 21 -14 7z"/>
<path d="M7810 2721 c0 -6 4 -13 10 -16 6 -3 7 1 4 9 -7 18 -14 21 -14 7z"/>
<path d="M7970 2721 c0 -6 4 -13 10 -16 6 -3 7 1 4 9 -7 18 -14 21 -14 7z"/>
<path d="M8186 2721 c-4 -5 -2 -12 3 -15 5 -4 12 -2 15 3 4 5 2 12 -3 15 -5 4
-12 2 -15 -3z"/>
<path d="M7530 2119 c0 -5 5 -7 10 -4 6 3 10 8 10 11 0 2 -4 4 -10 4 -5 0 -10
-5 -10 -11z"/>
<path d="M6425 1690 c-3 -5 -13 -7 -23 -4 -14 5 -14 4 -2 -4 9 -7 19 -7 26 -2
6 6 15 6 19 2 5 -4 5 -1 1 6 -9 15 -13 15 -21 2z"/>
<path d="M4706 1677 c3 -10 9 -15 12 -12 3 3 0 11 -7 18 -10 9 -11 8 -5 -6z"/>
<path d="M5126 1605 c-4 -11 1 -14 19 -13 28 3 33 13 9 22 -21 8 -21 8 -28 -9z"/>
<path d="M5975 1610 c-4 -6 -10 -8 -15 -5 -5 3 -11 2 -14 -3 -2 -4 8 -8 23 -7
19 0 27 4 24 12 -6 16 -10 16 -18 3z"/>
</g>
</svg>
